<?xml version="1.0" encoding="utf-8"?>
<!-- Generator: Adobe Illustrator 25.0.1, SVG Export Plug-In . SVG Version: 6.00 Build 0)  -->
<svg version="1.1" id="Layer_1" xmlns="http://www.w3.org/2000/svg" xmlns:xlink="http://www.w3.org/1999/xlink" x="0px" y="0px"
	 viewBox="0 0 3546.9 3111" style="enable-background:new 0 0 3546.9 3111;" xml:space="preserve">
<style type="text/css">
	.st0{opacity:0.5;fill-rule:evenodd;clip-rule:evenodd;fill:#D5ECFF;enable-background:new    ;}
	.st1{fill:#DDB0C8;}
	.st2{fill-rule:evenodd;clip-rule:evenodd;fill:#EECCDC;}
	.st3{fill-rule:evenodd;clip-rule:evenodd;fill:#DDB0C8;}
	.st4{display:none;}
	.st5{display:inline;}
	.st6{fill-rule:evenodd;clip-rule:evenodd;fill:#E4F9FF;}
	.st7{fill-rule:evenodd;clip-rule:evenodd;fill:#204EB2;}
	.st8{fill-rule:evenodd;clip-rule:evenodd;fill:#56ACF6;}
	.st9{fill-rule:evenodd;clip-rule:evenodd;fill:#FFFFFF;}
	.st10{fill:none;stroke:#FFFFFF;stroke-width:8;stroke-linecap:round;}
	.st11{fill-rule:evenodd;clip-rule:evenodd;fill-opacity:0;}
	.st12{filter:url(#Adobe_OpacityMaskFilter);}
	.st13{mask:url(#mask-6_1_);fill-rule:evenodd;clip-rule:evenodd;fill:#F6CBC3;}
	.st14{fill-rule:evenodd;clip-rule:evenodd;fill:#3B3D4A;}
	.st15{fill:none;stroke:#FFFFFF;stroke-width:10;}
	.st16{fill:none;stroke:#000000;stroke-width:4;}
	.st17{fill:#C86A5D;}
	.st18{fill:none;}
	.st19{fill-rule:evenodd;clip-rule:evenodd;fill:#F6CBC3;}
	.st20{fill-rule:evenodd;clip-rule:evenodd;fill:#1BC0D7;}
	.st21{fill-rule:evenodd;clip-rule:evenodd;fill:#FCEBEC;}
	.st22{fill-rule:evenodd;clip-rule:evenodd;fill:#237978;}
	.st23{fill-rule:evenodd;clip-rule:evenodd;fill:#3267C8;}
	.st24{fill-rule:evenodd;clip-rule:evenodd;fill:#995B5D;}
	.st25{fill:none;stroke:#000000;stroke-width:3;}
	.st26{fill-rule:evenodd;clip-rule:evenodd;fill:#F0ECEC;}
	.st27{fill-rule:evenodd;clip-rule:evenodd;fill:#E0D3CC;}
	.st28{fill-rule:evenodd;clip-rule:evenodd;fill:#E7DADA;}
	.st29{fill-rule:evenodd;clip-rule:evenodd;fill:#F9F9F9;}
	.st30{fill-rule:evenodd;clip-rule:evenodd;fill:#165C5D;}
	.st31{fill-rule:evenodd;clip-rule:evenodd;fill:#EEDFD9;}
	.st32{fill-rule:evenodd;clip-rule:evenodd;fill:#46AFAC;}
	.st33{fill-rule:evenodd;clip-rule:evenodd;}
</style>
<g id="Master_x2F_Spot-Illustration_x2F_Secured">
	<ellipse id="Floor" class="st0" cx="1783.8" cy="2950.4" rx="1602" ry="58"/>
	<g id="Lock-Copy" transform="translate(803.000000, 270.000000)">
		<path id="Rectangle" class="st1" d="M1309.2-255.6c280.4,0,507.6,227.3,507.6,507.7v1097.6c0,280.4-227.3,507.7-507.6,507.7H686.5
			c-280.4,0-507.6-227.3-507.6-507.7V252.1c0-280.4,227.3-507.7,507.6-507.7H1309.2z M1309.3-62.6h-623
			c-172.5,0-312.7,138.4-315.5,310.1l0,5.2V1350c0,172.4,138.4,312.5,310.3,315.3l5.2,0h623c172.5,0,312.7-138.4,315.5-310.1l0-5.2
			V252.7c0-172.4-138.4-312.5-310.3-315.3L1309.3-62.6z"/>
		<polygon id="Rectangle_1_" class="st2" points="-80.3,811.4 2041,811.4 2158.9,2680.4 -198.1,2680.4 		"/>
		<g id="Lock-Hole" transform="translate(857.000000, 1420.000000)">
			<ellipse id="Oval" class="st3" cx="123.4" cy="64.4" rx="321.5" ry="320"/>
			<polygon id="Rectangle_2_" class="st3" points="17.3,157.4 229.4,157.4 317.9,906.4 -71.1,906.4 			"/>
		</g>
	</g>
	<g id="Master_x2F_Character_x2F_Standing" transform="translate(-213.000000, 706.000000)" class="st4">
		<g id="Lower-Body_x2F_Standing_x2F_Summer-Shorts" transform="translate(503.000000, 943.000000)" class="st5">
			<g id="Group-46" transform="translate(349.000000, -1.000000)">
				<path id="Fill-5_2_" class="st6" d="M48.4,1176H-72.2"/>
				<path id="Fill-7" class="st6" d="M-131.5,1291.6c0,0-2.1-33.8,8.3-37.6c10.4-3.7,186.2-8.8,186.2-8.8l-0.3,35.1
					c0,0-52.7,13.8-98.5,15.4C-81.7,1297.4-130.1,1293.7-131.5,1291.6"/>
				<path id="Fill-9" class="st7" d="M63,1245.2c0,1.9,0,3,0,3s-34.6,7.4-64.1,10.4c-29.6,3-116.5,6.7-122.3-0.7
					c-4.7-6.1,31.8-56.2,44.7-73.5c-2.8-1.3-4.7-4.1-4.7-7.4c0-2.3,0.9-4.3,2.4-5.8c1.5-1.5,3.5-2.4,5.8-2.4H56
					c4.5,0,8.2,3.7,8.2,8.2c0,2.3-0.9,4.3-2.4,5.8c-0.6,0.6-1.2,1-1.9,1.4C62,1199.8,62.8,1234.7,63,1245.2"/>
				<path id="Fill-11" class="st8" d="M-112.7,1234.4c0,0-19.7,21.2-9.9,24.6c9.9,3.4,87.4,6.5,115.9,1.9l28.5-4.6
					c0,0,2.2-12.5-14.9-25.2c-12.3-9-20.2-21.5-31.6-23.8c-11.4-2.3-33.4-3.5-43.3,1.4C-77.8,1213.7-94.9,1223.8-112.7,1234.4"/>
				<path id="Fill-13" class="st9" d="M27.1,1213.3c0,0,1.5,28.3,12.3,27.6c10.8-0.7,15.4-43.9,21-56.6c0,0-5.4-1.4-14.5,23.6
					C41.2,1220.5,42.3,1234.1,27.1,1213.3"/>
				<path id="Stroke-15" class="st10" d="M-85.8,1207.4c0,0,34.9-18,76.6,2.3"/>
				<path id="Stroke-17" class="st10" d="M-75.1,1183.2c0,0,34.9-18,76.6,2.3"/>
				<path id="Stroke-19" class="st10" d="M-78.4,1190.4c0,0,35.6-16.8,76.5,5"/>
				<path id="Stroke-21" class="st10" d="M-82.6,1204.8c0,0,32.4-22.2,76.3-7.2"/>
				<path id="Fill-25_1_" class="st6" d="M352.6,1185.9l120.5-6.1"/>
				<path id="Fill-27" class="st6" d="M538.2,1292.2c0,0,0.4-33.9-10.2-37.1c-10.6-3.2-186.4,0.7-186.4,0.7l2.1,35.1
					c0,0,53.4,11.1,99.2,10.4C488.7,1300.6,537,1294.4,538.2,1292.2"/>
				<path id="Fill-29" class="st7" d="M341.6,1255.9c0.1,1.9,0.1,3,0.1,3s34.9,5.6,64.6,7.1c29.7,1.5,116.7,0.8,122.1-6.9
					c4.4-6.3-34.7-54.5-48.4-71.1c2.7-1.4,4.5-4.4,4.3-7.7c-0.1-2.3-1.1-4.3-2.7-5.7c-1.6-1.4-3.7-2.2-5.9-2.1l-131,6.7
					c-4.5,0.2-8,4.1-7.8,8.6c0.1,2.3,1.1,4.3,2.7,5.7c0.6,0.5,1.3,1,2,1.3C340.3,1210.4,341.3,1245.4,341.6,1255.9"/>
				<path id="Fill-31" class="st8" d="M516.5,1236.1c0,0,20.8,20.2,11.1,24.1c-9.7,3.9-87,10.9-115.7,7.8l-28.7-3.1
					c0,0-2.8-12.4,13.6-25.9c11.8-9.7,19.1-22.5,30.4-25.4c11.3-2.9,33.2-5.2,43.3-0.8C480.7,1217.2,498.2,1226.4,516.5,1236.1"/>
				<path id="Fill-33" class="st9" d="M375.9,1222.1c0,0,0,28.3-10.9,28.1c-10.8-0.2-17.6-43.1-23.8-55.5c0,0,5.3-1.7,15.7,22.8
					C362.1,1230.1,361.7,1243.7,375.9,1222.1"/>
				<path id="Stroke-35" class="st10" d="M488.2,1210.5c0,0-35.8-16.2-76.4,6.1"/>
				<path id="Stroke-37" class="st10" d="M476.4,1186.9c0,0-35.8-16.2-76.4,6.1"/>
				<path id="Stroke-39" class="st10" d="M480.1,1193.9c0,0-36.4-14.9-76.1,8.9"/>
				<path id="Stroke-41" class="st10" d="M485,1208.1c0,0-33.5-20.5-76.6-3.3"/>
			</g>
			<g id="SCALABLE">
				<line id="Rectangle_7_" class="st11" x1="1184.8" y1="1301.4" x2="-198.1" y2="1301.4"/>
			</g>
		</g>
		<g id="Upper-Body_x2F_Shrugg" transform="translate(376.000000, 69.000000)" class="st5">
			<g id="SCALABLE_1_">
				<line id="Rectangle_6_" class="st11" x1="1952.1" y1="834.6" x2="1952.1" y2="1986.6"/>
			</g>
		</g>
		<g id="HAS-SKIN" transform="translate(25.000000, 0.000000)" class="st5">
			<line id="Rectangle_5_" class="st11" x1="-198.1" y1="-155.6" x2="-198.1" y2="-255.6"/>
		</g>
	</g>
	<g id="Master_x2F_Character_x2F_Sitting-On-Floor" transform="translate(1351.000000, 858.000000)">
		<g id="Upper-Body_x2F_Gesturing" transform="translate(911.000000, 1121.000000)">
			
				<g id="Torso" transform="translate(943.000000, 742.000000) scale(-1, 1) translate(-943.000000, -742.000000) translate(332.000000, 332.000000)">
				<g id="Group-3_2_" transform="translate(123.000000, 417.880000)">
					<g id="Clip-2">
					</g>
					<defs>
						<filter id="Adobe_OpacityMaskFilter" filterUnits="userSpaceOnUse" x="604.4" y="-13.2" width="0" height="0">
							<feColorMatrix  type="matrix" values="1 0 0 0 0  0 1 0 0 0  0 0 1 0 0  0 0 0 1 0"/>
						</filter>
					</defs>
					<mask maskUnits="userSpaceOnUse" x="604.4" y="-13.2" width="0" height="0" id="mask-6_1_">
						<g class="st12">
							<polygon id="path-5_1_" class="st9" points="198.1,-255.5 630.4,-255.5 630.4,146.4 198.1,146.4 							"/>
						</g>
					</mask>
					<path id="Fill-1_5_" class="st13" d="M604.4-13.2"/>
				</g>
			</g>
		</g>
		
			<g id="Lower-Body_x2F_Sitting-on-Floor_x2F_Spread-Out-2" transform="translate(1165.000000, 2062.000000) scale(-1, 1) translate(-1165.000000, -2062.000000) translate(0.000000, 1624.000000)">
			<g id="Lower-Body" transform="translate(384.000000, 0.000000)">
				<g id="Group-44" transform="translate(0.000000, 0.494000)">
					<path id="Fill-10_6_" class="st14" d="M1895.4,529.4"/>
					<path id="Stroke-12_2_" class="st15" d="M1957.4,407.4"/>
					<path id="Stroke-12_4_" class="st15" d="M1915.4,461.9"/>
					<path id="Stroke-22_3_" d="M476.2,112.5"/>
					<line id="Stroke-22_2_" x1="576.2" y1="310.2" x2="571.7" y2="312.4"/>
					<path id="Stroke-36_2_" class="st16" d="M713.1,427.7"/>
					<path id="Stroke-36_1_" class="st16" d="M697.4,435.4"/>
					<path id="Stroke-38_2_" class="st16" d="M741.5,417.2"/>
					<path id="Stroke-38_1_" class="st16" d="M758.9,412.3"/>
					<path id="Stroke-40_3_" class="st16" d="M748.5,430"/>
					<path id="Stroke-40_1_" class="st16" d="M770.2,428"/>
					<path id="Stroke-42_1_" class="st16" d="M702.7,449.6"/>
				</g>
			</g>
		</g>
		<g id="Expression_x2F_Meditating_1_" transform="translate(1633.000000, 1204.000000)">
			<g id="Group-124_1_" transform="translate(25.000000, 31.000000)">
				<path id="Stroke-122_4_" class="st17" d="M379.8,1012l-1.6-0.8c-0.7-0.3-1.3-0.7-2-1l-1.1-0.6l-0.8-0.4l2-3.5l0.7,0.4l0.7,0.3
					c1,0.5,2.1,1.1,3.4,1.7l0.5,0.3c4.2,2.1,8.9,4.1,13.9,6"/>
				<path id="Stroke-122_1_" class="st17" d="M428.7,1022.8c4.8,0.4,9.3,0.5,13.5,0l0.8-0.1l0.5,4c-4.8,0.6-9.9,0.6-15.2,0.1"/>
			</g>
		</g>
		<g id="Accessories_x2F_Dark-Shades-and-Earring" transform="translate(1586.000000, 1237.000000)">
			<g id="Group-18_2_" transform="translate(19.000000, -3.000000)">
				<line id="Fill-10_2_" class="st18" x1="375.4" y1="846.1" x2="425.4" y2="866.1"/>
				<line id="Fill-14_2_" class="st18" x1="493.2" y1="874.2" x2="519.4" y2="877.1"/>
			</g>
		</g>
	</g>
	<g id="Upper-Body_x2F_With-Laptop">
		<path id="Neck_2_" class="st19" d="M2614.8,1918.7c0,0-3.7,81.2-51,109.8c-43,26,48,176.8,145.9,167.8
			c53.6-4.9,66.1-151.5,66.1-151.5s-43.3-8.4-27.3-74.3L2614.8,1918.7z"/>
		<path id="Head_2_" class="st19" d="M2693.2,2001.3c-63.5-7.7-109.3-49.4-115.7-118.6c-18.4,2.9-22.8-45.1-17.7-60.6
			s21.9-6.4,21.9-6.4c0.9-2.4,1.7-5,2.4-7.7c27.7-113.7,105.4-109.2,105.4-109.2c142.7,7.4,109.2,153.1,101.1,191.7
			C2782.5,1929.2,2754.6,2008.7,2693.2,2001.3z"/>
		<g id="Group-25" transform="translate(266.000000, 320.000000)">
			<g id="Group-19" transform="translate(0.000000, 0.612000)">
				<path id="Path_1_" class="st19" d="M1979.1,2000.4c-55.4,97.9-67.4,171.1-36.2,219.5c46.9,72.7,113.3-23.4,140.7-130.7
					c18.2-71.5,46.2-128.6,83.8-171.4L1979.1,2000.4z"/>
				<g id="Group-3_4_" transform="translate(695.000000, 361.000000)">
					<g id="Clip-2_2_">
					</g>
				</g>
				<path id="Fill-4_3_" class="st20" d="M2170.7,1739.9c82.9-25.6,108.4-27.1,108.4-27.1l87.5,18.9c0,0,48,63,52.1,119.2
					c0,0,1.4-74,32.9-124.7c0,0,138.7-1.3,191,53.3c82.6,86.2,81,237.6,81,237.6l-136.3,14l55.3-76.9c0,0,3.5,313.4-4.7,394.3
					c-104,114.8-478,25.9-478,25.9s8.1-259.3,9.5-330.3c1.4-70.9-24.9-61.4-61,26.6c-29.6,71.9-123.6-77.2-123.6-77.2
					S2042.5,1779.5,2170.7,1739.9z"/>
				<path id="Fill-6_4_" class="st21" d="M2593.9,2130.5c0,0,67.3-24.1,135.7-9.9c0,0-0.9-22.3-0.2-51.8c0.6-24.2,13.8-61.7-34-57.7
					c-55.7,4.7-79.6,5.2-103.8,16.2C2591.6,2027.2,2585.9,2107.4,2593.9,2130.5"/>
				<path id="Fill-10_4_" class="st22" d="M1953.8,2040.5l29.3-92.3c0,0,108.6-22.7,151.7,71.2l-32.3,83.6
					C2102.6,2103,2042.3,2014,1953.8,2040.5"/>
				<g id="Group-14_1_" transform="translate(338.000000, 0.000000)">
					<g id="Clip-13">
					</g>
					<path id="Fill-12_5_" class="st22" d="M1942.6,1699.2c0,0-55.4,18.8-52,23.9s101.8,70.5,109.1,67.6c7.4-2.9,35-55.3,31.1-60.6
						C2026.9,1724.9,1947.3,1697.3,1942.6,1699.2"/>
				</g>
				<path id="Fill-15_3_" class="st22" d="M2540.5,1722c0,0,47.7,33.9,43,37.8s-117.7,38.4-124,33.5c-6.2-4.9-17.7-63-12.4-66.9
					C2452.4,1722.4,2536.5,1718.8,2540.5,1722"/>
				<path id="Fill-8_2_" class="st19" d="M2019.7,2096.7c27.3,40,11.1,40.7,23,62.7s23.1,67.9,36.7,66.7c13.6-1.2,14.4-8.7,9-22.9
					c-5.3-14.2-20.9-59.6-15.1-61.8c5.8-2.2,24.7,87.6,46.3,86.2c21.6-1.4,3.5-47.5-6.3-68.1c-9.8-20.6-13.1-35.8-6.9-34.5
					c6.2,1.3,30,101.8,47.6,98.8s8.7-38.3-1.1-59.2c-9.7-20.8-24.3-53.7-24.3-53.7s24.7,32,35.9,70.3c11.2,38.2,18.1,40.2,24.4,36.5
					c6.3-3.7-2.1-48.7-2.1-48.7s21.1-34.5-5.4-65.3s-41.4-63.2-77.9-80.6c-36.6-17.4-59.3-2.9-59.3-2.9S1992.4,2056.7,2019.7,2096.7
					z"/>
				<path id="Fill-17_3_" class="st22" d="M2552.9,1908.6h-90.8c-3.7,0-6.7-3-6.7-6.7v-7.9c0-3.7,3-6.7,6.7-6.7h90.8
					c3.7,0,6.7,3,6.7,6.7v7.9C2559.6,1905.6,2556.6,1908.6,2552.9,1908.6"/>
			</g>
			<g id="Group-24_1_" transform="translate(397.000000, 175.000000)">
				<path id="Fill-20_2_" class="st7" d="M2075.2,2071.2l-182.7-50.6c0,0-11.4-12,22.1-15.1c33.4-3.2,382.9-12.5,382.9-12.5
					L2075.2,2071.2z"/>
				<path id="Fill-22_2_" class="st23" d="M2593.2,2070.6h-512.5c-9.5,0-17.2-7.7-17.2-17.2l46.5-337.5c0-9.5,7.7-17.2,17.2-17.2
					h512.5c9.5,0,17.2,7.7,17.2,17.2l-46.5,337.5C2610.4,2062.9,2602.7,2070.6,2593.2,2070.6"/>
			</g>
			
				<g id="Group-2" transform="translate(893.239277, 513.555823) scale(-1, 1) rotate(-72.000000) translate(-893.239277, -513.555823) translate(800.239277, 441.555823)">
				<path id="Fill-12_4_" class="st19" d="M-2164.8-1271.8c0,0-4.7,4.6-9.3,10.2c-4.6,5.7-0.5,6.7-10.8,17.5
					c-10.3,10.8-28.8,38.1,3.6,79.8c32.5,41.7,43.3,38.1,56.7,30.9c13.4-7.2,14.9-12.4,40.2-14.9c25.2-2.6,49.5-27.3,48.9-33.5
					l-0.5-6.2c0,0,23.2-8.8,21.6-18.5c-1.5-9.8-8.2-8.8-8.2-8.8s4.6-4.6,1-12.9c-3.6-8.2-20.6-6.7-40.2-4.1
					c-19.6,2.6-70.1,12.9-73.1,10.8c-3.1-2.1-2.1-5.2,9.8-6.7c11.8-1.5,59.8-2.1,59.8-15.5s-14.4-16-42.2-15.5
					c-27.8,0.5-33-1-39.7,1.5l-12.4,1.4C-2163.1-1266.5-2164.8-1271.8-2164.8-1271.8z"/>
				<path id="Fill-14_5_" class="st24" d="M-2022.3-1215.2c0,0,1.5-1.1-9.5,3.1c-4,1.5-9.7,3.1-17.6,4.6c-29.9,5.7-76.8,16-91.2,18
					c-14.4,2.1-2.6,5.2,30.4-1.5s72.2-15.7,74-16.3C-2033.3-1208.2-2024.3-1211.2-2022.3-1215.2"/>
				<path id="Fill-16_5_" class="st24" d="M-2083.3-1173.2c-12.7,3.2-34,8-36.2,8.5c-4,1-11.8,2.6-11.8,2.6s0.1,2.9,24.1-2.1
					c6-1.2,17-3,24-5c6.4-1.8,29.7-7.8,32.8-10.4c3.1-2.6,3.6-5.2,3.6-5.2S-2071.3-1176.2-2083.3-1173.2z"/>
			</g>
		</g>
	</g>
	<g id="Lower-Body_x2F_Sitting-on-Floor_x2F_Legs-Crossed-2_1_">
		<g id="Group-46_1_" transform="translate(69.000000, 357.000000)">
			<path id="Fill-1_11_" class="st19" d="M2581.1,2545.5l31.9,18c0,0,44.3-44.8,39.1-37.6s-47.9-11.3-47.9-11.3L2581.1,2545.5z"/>
			<path id="Stroke-3_1_" class="st25" d="M2581.1,2545.5l31.9,18c0,0,44.3-44.8,39.1-37.6s-47.9-11.3-47.9-11.3L2581.1,2545.5z"/>
			<path id="Fill-5_6_" class="st26" d="M2946.8,2537.3c-40.7,3.1-218.4,89.1-218.4,89.1l4.6,22.7c0,0,176.7,39.1,226.6-18
				C3009.6,2573.8,2946.8,2537.3,2946.8,2537.3"/>
			<path id="Fill-7_6_" class="st27" d="M2920.9,2543.3c56,29.2,24.1,99.9,24.1,99.9c25-11.1,42-44.1,34.3-72.4
				s-32.5-33.5-32.5-33.5L2920.9,2543.3z"/>
			<path id="Fill-9_4_" class="st28" d="M2926.6,2651.2c-58.8,30.5-196.3-1.7-196.3-1.7l-6.5-23.6l37-14.9
				c11.2,2.1,122.7-3.7,133-4.7C2904,2605.3,2926.6,2651.2,2926.6,2651.2"/>
			<path id="Fill-11_4_" class="st29" d="M2896.3,2564.6c0,0-0.5-5.2-3.1-9.3c-2.6-4.1-89.6,29.4-95.3,38.1
				c-5.7,8.8-16,26.8-6.7,28.8c9.3,2.1,12.4-14.4,22.7-28.3c10.3-13.9-7.7,23.7,2.1,29.4c9.8,5.7,21.1-40.2,26.8-39.1
				c5.7,1-9.3,35.5,1.5,36.1c10.8,0.5,14.9-33.5,21.6-51.5s-9.3,46.9-1.5,55.6c7.7,8.8,9.3-20.6,11.3-43.8
				c2.1-23.2,5.2,43.8,17,43.8C2904.6,2624.3,2896.3,2564.6,2896.3,2564.6"/>
			<g id="Group-15_1_" transform="translate(0.000000, 0.784000)">
				<path id="Fill-13_3_" class="st30" d="M2763.4,2622.5c-33,44.8-95.8-106.1-107.1-102c-11.3,4.1-42.2,4.6-42.2,4.6L2560,2486
					c10.3,62.3-28.3,105.1-28.3,105.1l-89.6,5.7c-89.6,5.7-264.2-53.1-320.9-80.4s-95.3-107.7-62.3-189.6
					c33-81.9,140.6-51.5,208.1-31.4c67.5,20.1,197.3,27.3,294,27.5s299.4-38.4,361.2-65.7c61.8-27.3,190.1-91.2,244.7-7.2
					s-1.5,158.7-98.4,235.4C2971.5,2562.2,2763.4,2622.5,2763.4,2622.5"/>
			</g>
			<path id="Fill-16_7_" class="st19" d="M2654.2,2522.9c0,0-65.9,37.6-74.2,48.9c-8.2,11.3-80.9,27.8-80.9,27.8
				s-12.9,74.2,8.8,89.1c21.6,14.9,66.4,3.1,88.1-10.8c21.6-13.9,112.3-47.4,112.3-47.4L2654.2,2522.9z"/>
			<path id="Fill-18_3_" class="st26" d="M2506.9,2605.5c0,0,23.1,70.4,22.6,83.8c-0.5,13.4-19.6,24.7-38.6,30.9
				c-19.1,6.2-104.1-6.2-147.8-2.6c-43.8,3.6-92.2,29.4-127.7-24.7c-35.5-54.1,46.4-130.8,85-120s173.1,25.8,187.5,23.2
				C2502.3,2593.4,2506.9,2605.5,2506.9,2605.5"/>
			<path id="Fill-20_3_" class="st27" d="M2310.4,2579.9c0,0,16.8,2.7,0-6.2s-65.1-4-95.9,56.5c-30.8,60.4,23.2,85.9,23.2,85.9
				s-4.8-30.9,5.5-69.6C2253.5,2607.8,2310.4,2579.9,2310.4,2579.9"/>
			<path id="Fill-22_3_" class="st31" d="M2316.7,2578.6c0,0,12.5,48.3,8.4,84.4c-4.1,36.1-55.2,63.4-55.2,63.4
				c32.8-6.7,56.8-39.7,61.4-43.3c4.6-3.6,11.8,0.5,11.8,0.5s176.7,30.4,186,14.4s-16.5-77.9-16.5-77.9s-120.1,26.3-145.8,26.9
				c-25.8,0.5-23.7-4.6-23.7-4.6C2340,2615.6,2316.7,2578.6,2316.7,2578.6"/>
			<path id="Fill-24_2_" class="st9" d="M2486.3,2616.1c-0.5-6.2-4.6-4.1-11.3,2.6s5.7,84.5,17.2,86.6c11.5,2.1,6-15-0.7-34.5
				C2484.8,2651.1,2486.3,2616.1,2486.3,2616.1"/>
			<path id="Fill-26_2_" class="st9" d="M2467.2,2620.2c-0.5-6.2-4.6-4.1-11.3,2.6s5.7,84.5,17.2,86.6c11.5,2.1,6-15-0.7-34.5
				C2465.7,2655.2,2467.2,2620.2,2467.2,2620.2"/>
			<path id="Fill-28_2_" class="st9" d="M2399.8,2621.4c-0.5-5.7-4.6-3.8-11.3,2.4c-6.7,6.1,5.7,77.3,17.2,79.2s6-13.7-0.7-31.6
				C2398.2,2653.5,2399.8,2621.4,2399.8,2621.4"/>
			<path id="Fill-30_3_" class="st9" d="M2374,2625.3c-0.5-5.3-4.6-3.5-11.3,2.2s5.7,72.1,17.2,73.9s6-12.8-0.7-29.5
				S2374,2625.3,2374,2625.3"/>
			<path id="Fill-32_3_" class="st9" d="M2355.5,2623.2c0.2-5.3-4.1-4.1-11.5,0.6s-4.6,72.2,6.5,75.6c11.1,3.4,7.7-11.8,3.5-29.3
				C2349.7,2652.6,2355.5,2623.2,2355.5,2623.2"/>
			<path id="Fill-34_3_" class="st9" d="M2443.3,2622.5c-1.1-6.1-5-3.6-11,3.7s14.3,83.5,26,84.4c11.7,0.9,4.4-15.5-4.2-34.3
				C2445.3,2657.5,2443.3,2622.5,2443.3,2622.5"/>
			<path id="Fill-36_2_" class="st9" d="M2433.2,2621.8c0.5-6.2-3.9-4.8-11.6,0.8c-7.7,5.6-7.5,84.3,3.6,88.2
				c11.1,3.9,8.2-13.9,4.6-34.2C2426.2,2656.2,2433.2,2621.8,2433.2,2621.8"/>
			<path id="Fill-38_2_" class="st9" d="M2510.4,2617.8c31.3,9.9,21.7,74.3,21.7,74.3s-40.7,11-47.4-28.1
				C2478.1,2624.8,2510.4,2617.8,2510.4,2617.8"/>
			<polygon id="Stroke-40_2_" points="2968.6,2278.5 2683.8,2503.2 2619.8,2530.1 2552.9,2488.4 2329.1,2346.8 2331.2,2343.4 
				2555,2485 2620.2,2525.6 2681.7,2499.7 2966.1,2275.4 			"/>
			<path id="Fill-42_2_" class="st32" d="M2548.1,2463.6c13.9,43.8-4.1,90.1-13.9,115.4c-9.8,25.2,5.7,11.8,43.8-4.1
				c38.1-16,42.2-54.1,29.4-76.2C2594.6,2476.6,2548.1,2463.6,2548.1,2463.6"/>
			<path id="Fill-44_2_" class="st32" d="M2683.1,2493c-4.1-17-56.1,24.7-56.1,24.7c1,51,48.4,108.2,70.1,133.9
				c21.6,25.8,21.1,26.3,30.4,13.9c9.3-12.4,23.7-17,33-26.8s-16-13.9-44.3-54.1C2687.7,2544.5,2683.1,2493,2683.1,2493"/>
		</g>
	</g>
	<g id="Hairstyle_x2F_Bob">
		<path id="Fill-1_10_" class="st33" d="M2484.6,1975.2c0,0,10-139.2,42-221.8c40.3-103.8,108.6-146,167.4-126c0,0,83.7-10,110,63.7
			c26.3,73.7,16.2,308.7,16.2,308.7l-66.2-5c0,0-9.4-25-5-43.7c0,0,37.2-39.3,47.7-98.2c14.1-79.2-31.1-80.2-69.2-97.1
			c-38.1-16.9-60.3-39-60.3-39s-62.4,84.9-51.8,264.7L2484.6,1975.2z"/>
	</g>
	<g id="Expression_x2F_Happy">
		<g id="Group-124_2_" transform="translate(25.000000, 52.000000)">
			<path id="Stroke-114_2_" d="M2714.7,1747.7l3.8,1.2l-0.4,1.2c-0.3,1-0.6,2.1-1,3.3c-1,3.5-2.1,7.3-3,11.2
				c-1.1,4.3-2,8.5-2.7,12.5l-0.2,1.2c-1.7,10.1-2,17.8-0.4,22l0.1,0.2c8.9,22-3.2,33.1-28.5,25.3l-0.8-0.2l1.2-3.8
				c22.8,7.3,31.9-0.9,24.3-19.8c-2.1-5.2-1.8-14,0.3-25.6c0.7-4.1,1.7-8.3,2.7-12.8c0.9-3.5,1.8-7,2.7-10.2l0.3-1.2
				c0.2-0.7,0.4-1.4,0.6-2l0.5-1.6L2714.7,1747.7z"/>
			<path id="Stroke-122_2_" class="st17" d="M2616,1900.7l2-3.5l0.7,0.4l0.7,0.3c1,0.5,2.1,1.1,3.4,1.7l0.5,0.3
				c4.2,2.1,8.9,4.1,13.9,6c11.4,4.4,22.8,7.4,33.3,8.4c4.8,0.4,9.3,0.5,13.5,0l0.8-0.1l0.5,4c-4.8,0.6-9.9,0.6-15.2,0.1
				c-10.9-1-22.6-4.1-34.4-8.7c-5.1-2-9.9-4.1-14.2-6.2l-1.6-0.8c-0.7-0.3-1.3-0.7-2-1l-1.1-0.6L2616,1900.7z"/>
		</g>
		<g id="Group-16" transform="translate(27.000000, 30.000000)">
			<path id="Fill-3_7_" class="st33" d="M2683.5,1882.2c-18.2-4.9-29.7-16.9-30.3-17.5c-1.1-1.2-1.1-3.1,0.1-4.2
				c1.2-1.1,3.1-1.1,4.2,0.1c0.2,0.2,13.8,14.3,33.9,17.1c1.6,0.2,2.8,1.8,2.5,3.4c-0.2,1.6-1.8,2.8-3.4,2.5
				C2688.2,1883.3,2685.8,1882.8,2683.5,1882.2"/>
			<path id="Fill-5_5_" class="st33" d="M2694.6,1850.4c-4,0-9.1-0.8-15.4-2.8l1.2-3.8c11.7,3.8,20.4,3.4,24.4-0.9
				c3.4-3.7,3.4-10.4-0.1-18.9c-2.3-5.8-1.8-16.7,1.7-32.6c2.5-11.6,5.8-21.7,5.8-21.8l3.8,1.2c-3.5,10.9-11.7,41.5-7.6,51.6
				c5.2,12.9,2.5,19.7-0.7,23.1C2705.5,1848.1,2701.5,1850.4,2694.6,1850.4"/>
			<g id="Group-9_4_" transform="translate(0.000000, 0.956000)">
				<path id="Fill-7_5_" class="st33" d="M2677.9,1766.6c-0.6,0-1.2-0.1-1.8-0.3c-5.8-2-22.7-7.4-30.5-8c-7.4-0.5-18.6,3.1-22.3,4.5
					c-2.8,1.1-6-0.3-7.1-3.1c-1.1-2.8,0.3-6,3.1-7.1c0.6-0.2,15.7-6.1,27.1-5.3c10.9,0.8,32.4,8.3,33.3,8.6c2.9,1,4.4,4.1,3.4,7
					C2682.3,1765.2,2680.2,1766.6,2677.9,1766.6"/>
			</g>
			<path id="Fill-10_5_" class="st33" d="M2770.5,1786.4c-1.1,0-2.2-0.3-3.2-1c-3.1-2.2-12.5-8.3-19.4-9.5
				c-7.3-1.2-24.2,0.2-30.1,0.8c-2.9,0.3-5.6-1.8-5.9-4.8c-0.3-2.9,1.8-5.6,4.8-5.9c0.9-0.1,22.7-2.4,33-0.7
				c10.8,1.8,23.4,11,24,11.4c2.4,1.8,2.9,5.1,1.1,7.5C2773.8,1785.6,2772.1,1786.4,2770.5,1786.4"/>
			<path id="Fill-12_6_" class="st33" d="M2667.4,1796.3c-0.7,0-1.5-0.3-2-0.8c0,0-5-4.4-12.1-4.2c-7.4,0.3-12.3,3.9-12.3,3.9
				c-1.3,1-3.2,0.7-4.2-0.6c-1-1.3-0.7-3.2,0.6-4.2c0.3-0.2,6.4-4.8,15.8-5.1c9.6-0.3,16.1,5.5,16.4,5.7c1.2,1.1,1.3,3,0.2,4.2
				C2669.1,1796,2668.2,1796.3,2667.4,1796.3"/>
			<path id="Fill-14_6_" class="st33" d="M2751.6,1805.5c-0.7,0-1.5-0.3-2-0.8c0,0-5-4.4-12.1-4.2c-7.4,0.3-12.3,3.9-12.3,3.9
				c-1.3,1-3.2,0.8-4.2-0.6c-1-1.3-0.8-3.2,0.6-4.2c0.3-0.2,6.4-4.8,15.8-5.1c9.6-0.3,16.1,5.5,16.4,5.7c1.2,1.1,1.3,3,0.2,4.2
				C2753.2,1805.1,2752.4,1805.5,2751.6,1805.5"/>
		</g>
		<g id="SCALABLE_15_">
			<rect id="Rectangle_20_" x="2615.8" y="1747.2" class="st11" width="202" height="224"/>
		</g>
	</g>
</g>
</svg>
