<?xml version="1.0" encoding="utf-8"?>
<!-- Generator: Adobe Illustrator 25.0.1, SVG Export Plug-In . SVG Version: 6.00 Build 0)  -->
<svg version="1.1" id="Layer_1" xmlns="http://www.w3.org/2000/svg" xmlns:xlink="http://www.w3.org/1999/xlink" x="0px" y="0px"
	 viewBox="0 0 6476 3057.8" style="enable-background:new 0 0 6476 3057.8;" xml:space="preserve">
<style type="text/css">
	.st0{fill-rule:evenodd;clip-rule:evenodd;fill:#E93737;}
	.st1{fill-rule:evenodd;clip-rule:evenodd;fill:#EECCDC;}
	.st2{fill-rule:evenodd;clip-rule:evenodd;fill:#EC7070;}
	.st3{fill-rule:evenodd;clip-rule:evenodd;fill:#FC7750;}
	.st4{fill-rule:evenodd;clip-rule:evenodd;fill:#FFFFFF;}
	.st5{fill-rule:evenodd;clip-rule:evenodd;fill-opacity:0;}
	.st6{fill-rule:evenodd;clip-rule:evenodd;fill:#204EB2;}
	.st7{fill-rule:evenodd;clip-rule:evenodd;fill:#F9C818;}
	.st8{fill-rule:evenodd;clip-rule:evenodd;fill:#56ACF6;}
	.st9{fill-rule:evenodd;clip-rule:evenodd;fill:#0A4343;}
	.st10{fill-rule:evenodd;clip-rule:evenodd;fill:#1BC0D7;}
	.st11{fill-rule:evenodd;clip-rule:evenodd;fill:#237978;}
	.st12{fill-rule:evenodd;clip-rule:evenodd;fill:#FEA78D;}
	.st13{fill-rule:evenodd;clip-rule:evenodd;fill:#165C5D;}
	.st14{fill-rule:evenodd;clip-rule:evenodd;fill:#FCEBEC;}
	.st15{fill-rule:evenodd;clip-rule:evenodd;}
	.st16{display:none;}
	.st17{display:inline;}
	.st18{fill-rule:evenodd;clip-rule:evenodd;fill:#F6CBC3;}
	.st19{fill-rule:evenodd;clip-rule:evenodd;fill:#1F9BEB;}
	.st20{fill-rule:evenodd;clip-rule:evenodd;fill:#C86A5D;}
	.st21{fill-rule:evenodd;clip-rule:evenodd;fill:#995B5D;}
	.st22{fill-rule:evenodd;clip-rule:evenodd;fill:#F8D8B8;}
	.st23{fill-rule:evenodd;clip-rule:evenodd;fill:#E4F9FF;}
	.st24{fill-rule:evenodd;clip-rule:evenodd;fill:#2E2C36;}
	.st25{fill-rule:evenodd;clip-rule:evenodd;fill:#3B3D4A;}
	.st26{fill:none;stroke:#FFFFFF;stroke-width:10;}
	.st27{fill-rule:evenodd;clip-rule:evenodd;fill:#F7C8A9;}
	.st28{fill-rule:evenodd;clip-rule:evenodd;fill:#353644;}
	.st29{fill-rule:evenodd;clip-rule:evenodd;fill:#2C262B;}
	.st30{fill-rule:evenodd;clip-rule:evenodd;fill:#3E454F;}
	.st31{fill:none;stroke:#000000;stroke-width:4;}
	.st32{fill:#C86A5D;}
	.st33{fill-rule:evenodd;clip-rule:evenodd;fill:#49352E;}
	.st34{fill:none;}
	.st35{filter:url(#Adobe_OpacityMaskFilter);}
	.st36{mask:url(#mask-4_2_);fill-rule:evenodd;clip-rule:evenodd;fill:#237978;}
	.st37{fill-rule:evenodd;clip-rule:evenodd;fill:#3267C8;}
	.st38{fill:none;stroke:#000000;stroke-width:3;}
	.st39{fill-rule:evenodd;clip-rule:evenodd;fill:#F0ECEC;}
	.st40{fill-rule:evenodd;clip-rule:evenodd;fill:#E0D3CC;}
	.st41{fill-rule:evenodd;clip-rule:evenodd;fill:#E7DADA;}
	.st42{fill-rule:evenodd;clip-rule:evenodd;fill:#F9F9F9;}
	.st43{fill-rule:evenodd;clip-rule:evenodd;fill:#EEDFD9;}
	.st44{fill-rule:evenodd;clip-rule:evenodd;fill:#46AFAC;}
</style>
<g id="Master_x2F_Scene_x2F_Alone-Time-1">
	<g id="Background" transform="translate(1152.000000, 431.000000)">
		<g id="Painting" transform="translate(2781.310000, 1.920000)">
			<g>
				<polygon id="Fill-2" class="st0" points="-715.1,807.9 309.9,807.9 309.9,-401.1 -715.1,-401.1 				"/>
				<polygon id="Fill-3" class="st1" points="-687.1,778.9 284.9,778.9 284.9,-373.1 -687.1,-373.1 				"/>
				<polygon id="Fill-4" class="st2" points="-98.1,374.9 284.9,374.9 284.9,-79.1 -98.1,-79.1 				"/>
				<polygon id="Fill-5" class="st0" points="-20.1,335.9 31.9,335.9 31.9,-27.1 -20.1,-27.1 				"/>
				<polygon id="Fill-7" class="st0" points="-98.1,-79.1 -183.1,77.9 -181.7,373.4 -98.1,374.9 				"/>
				<polygon id="Fill-8" class="st2" points="-688.1,778.9 -351.1,778.9 -351.1,328.9 -688.1,328.9 				"/>
				<polygon id="Fill-9" class="st0" points="-591.1,531.9 -351.1,531.9 -351.1,419.9 -591.1,419.9 				"/>
				<polygon id="Fill-10" class="st0" points="-591.1,702.9 -351.1,702.9 -351.1,583.9 -591.1,583.9 				"/>
				<polygon id="Fill-11" class="st2" points="-181.1,778.9 284.9,778.9 284.9,324.9 -181.1,324.9 				"/>
				<polygon id="Fill-12" class="st0" points="-93.1,533.9 285.1,533.9 285.1,419.9 -93.1,419.9 				"/>
				<polygon id="Fill-13" class="st0" points="-92.1,705.9 286.1,705.9 286.1,591.9 -92.1,591.9 				"/>
				<polygon id="Fill-14" class="st0" points="-181.1,324.9 -266.1,481.9 -264.7,777.4 -181.1,778.9 				"/>
				<path id="Fill-16" class="st3" d="M-362.1-131.1c0,59.6-48.4,108-108,108s-108-48.4-108-108s48.4-108,108-108
					S-362.1-190.7-362.1-131.1"/>
				<polygon id="Fill-6" class="st0" points="104.9,335.9 156.9,335.9 156.9,-27.1 104.9,-27.1 				"/>
				<polygon id="Fill-15" class="st0" points="232.9,337.9 284.9,337.9 284.9,-27.1 232.9,-27.1 				"/>
			</g>
		</g>
		<g id="Painting_x2F_Horizontal_x2F_Painting-1" transform="translate(1922.000000, 0.000000)">
			<g id="Painting_1_">
				<polygon id="Fill-45" class="st0" points="-715.1,105.9 52.9,105.9 52.9,-401.1 -715.1,-401.1 				"/>
				<polygon id="Fill-46" class="st1" points="-691.2,80.9 25.9,80.9 25.9,-372.3 -691.2,-372.3 				"/>
				<path id="Fill-47" class="st4" d="M-412.3-125.9c-3.7-13.7-14.3-24.9-27.2-30.4c-13.8-5.9-29.4-5-42.7,1.7
					c-7.3,3.7-13.7,9.2-18.2,16.1c-1.2,1.8,0.3,4.8,2.6,4.5c7.1-0.9,14.7-1.9,21.8,0.2c5.2,1.6,10.2,5.2,11.2,10.9
					c1-1.3,1.9-2.5,2.9-3.8c-8.3-0.8-16.5-1.6-24.8-2.4c-7.2-0.7-15.3-2.4-21.6,2.2c-2.8,2-5,4.7-7.1,7.4c-2.5,3.1-5,6.2-7.4,9.3
					c-4.9,6.2-9.6,12.6-14.2,19c-2,2.8,2.4,6.1,4.7,3.6c11.9-13,31-18.3,48-14.2c-0.2-1.8-0.5-3.7-0.7-5.5
					c-15.1,7.1-30.5,13.8-45.4,21.4c-6.2,3.2-12.5,7-17,12.4c-4.5,5.3-7.3,11.6-8.8,18.3c-1.8,7.6-2.1,15.5-2.2,23.2
					c-0.1,2.5,3.4,4.1,5.1,2.1c10-11,20.1-22.3,32.5-30.6c11.9-8,25.9-13.2,40.4-12.5c-0.5-1.9-1-3.7-1.5-5.6
					c-8.4,6.2-16.9,12.4-25.3,18.5c-7.4,5.4-14.9,10.7-21.8,16.7c-12.4,10.8-23.1,24.9-23.2,42.1c-0.1,8.8,2.9,17.4,9,23.8
					c1.2,1.3,3.9,1.2,4.7-0.6c8.3-18.3,23-33,40.9-42.2c-1.2-1.6-2.4-3.1-3.6-4.7c-7.5,8.2-14.3,17-20.4,26.3
					c-2.9,4.5-5.9,9-8.2,13.8c-1.8,3.6-3.2,7.7-3.1,11.8c0,4,1.6,7.8,5,10c3.8,2.5,8.6,2.2,12.6,0.3c4.3-2.1,7.2-5.8,8.9-10.2
					c1.9-4.8,2.2-10,3.9-14.9c3.4-9.5,11.8-16.7,21.3-19.7c-1.2-1.2-2.5-2.5-3.7-3.7c-7.2,17.1-15.3,33.7-24.4,49.8
					c-1.2,2.1,0.8,5.4,3.4,4.4c7.4-3,14-7.1,20.3-12c6.2-4.8,12.2-10,17.8-15.5c5.1-5,8.5-10.7,9.9-17.7c1.2-6.1,1.3-12.3,2-18.5
					c0.7-5.9,2.2-12.3,7.2-16.2l-4.4-1.8c3.8,14.3,2.6,29.6-3.5,43.2c-1.3,2.9,2.2,6.4,4.7,3.6c7.7-8.4,19.6-12.5,30.8-10.8
					c2.3,0.3,4.1-1.3,3.7-3.7c-1.7-9.1-8.3-15.9-13.3-23.3c-3.9-5.8-7.5-15.1-1.9-21c-1.6-0.2-3.1-0.4-4.7-0.6
					c8.2,13.6,14.6,28.2,19.1,43.5c0.7,2.6,4.1,2.9,5.5,0.7c3.2-4.9,10.5-5.4,15.5-7.4c5.5-2.2,11.7-6.4,11.4-13.1
					c-0.2-3.7-2.4-6.7-4.4-9.6c-2.5-3.6-5-7.2-7.5-10.8L-412.2-69c-1.4,1.4-2.7,2.7-4.1,4.1c17.3,10.9,26,30.3,33.8,48.4
					c1.1,2.5,4.8,1.5,5.5-0.7c2-6.7,5.6-12.9,10.3-18.1c2.4-2.6,5-4.9,7.9-7c2.8-2,5.7-4,8-6.6c4.9-5.6,5.1-12.8,1-18.9
					c-4.1-6.2-10.7-10.6-17.1-14.1c-7.7-4.1-16.1-6.9-24.7-8.1v5.8c15-2.8,30.9,0.9,43,10.1c1.6,1.2,3.9-0.1,4.4-1.8
					c3-10.8,3.1-23-1.8-33.3c-5.5-11.4-17.5-17.1-29.9-15.5c-14.6,1.9-27.2,11.5-38.7,20.1c-11.2,8.4-21.9,17.4-31,28
					c-9.8,11.4-17.5,24.7-20.3,39.6c-0.5,2.7,2.8,5.3,5,2.9c8-8.8,15.9-17.6,23.9-26.3c7.5-8.2,14.7-16.7,22.6-24.6
					c6.8-6.8,14.5-12.9,24.1-15.1c9-2,18.6-0.6,27,2.9c18.2,7.5,29.7,24.4,37.1,41.9c8.3,19.6,13.6,40.8,16,61.9
					c2.8,24.3,1.9,49.1-3,73.1h5.8c-9.6-32-9.5-65.6-7.6-98.7c2-33.6,5.8-67.2,3.3-100.8c-1.3-17.4-4.8-34.2-8.7-51.2
					c-3.7-16.6-7.2-33.5-6.6-50.6c0.6-15.1,4.6-30.2,14-42.2c8.3-10.6,20.2-18.5,33.6-20.7c3.7-0.6,7.5-0.8,10.8,1.2
					c3.1,1.9,5.5,4.9,7.9,7.5c5,5.7,9.4,11.9,13.1,18.4c7.3,12.9,12.2,27.3,13.7,42.1c0.4,3.7,0.5,7.4,0.5,11.1
					c1.9-0.5,3.7-1,5.6-1.5c-11.8-20.4-23.7-40.7-35.5-61.1c-8.8-15.2-21.9-36.5-8.1-52.8c9.8-11.5,26.7-15.1,41.2-14.2
					c16.5,1,32.7,8.7,45,19.5c13.7,12.1,23.7,28.9,25.5,47.3c1.7-0.7,3.4-1.4,5.1-2.1c-21.3-16.6-50.6-21.7-76.4-13.7
					c-2.6,0.8-3.1,5.3,0,5.8c19,3.3,39.1,7,55.7,17.2c7.6,4.7,14.3,10.9,18.6,18.9c4.2,7.8,5.6,17.2,4.1,26
					c-1.7,10.3-7,19.6-15,26.3c1.6,0.2,3.1,0.4,4.7,0.6c-10.6-16.8-24.1-31.7-39.7-44c-1.2,1.6-2.4,3.1-3.6,4.7
					c10.4,5.6,21.9,16.3,21.6,29.1c-0.2,6.7-4.5,11.8-8.9,16.4c-5.1,5.3-9.8,10.8-13.6,17.2c-4.2,7.1-7.1,14.8-8.8,22.9
					c1.7-0.4,3.3-0.9,5-1.3c-17.4-18.2-46.5-23.1-69.4-13.2c1.4,0.4,2.7,0.7,4.1,1.1c-10.4-17.5,3.5-37.5,10.2-53.6
					c2-4.7,3.7-9.5,4.5-14.5c0.7-4.3,0.2-8.8-3.3-11.8c-6-5.1-15.6-3.2-20.6,2.3c-6.4,7-7.4,18-8.5,27c-1.2,10.9-1.1,21.8,0.3,32.7
					c0.3,2.2,1.2,4.7,0.9,6.9c-0.1,0.9,0.1,0.7-0.9,0.7c-1.1,0-2.4-0.7-3.4-1c-5.5-1.8-11-3.6-16.5-5.4c-3.5-1.1-9.8-2-10.2-6.5
					c-0.2-2.2,0.4-4.4,0.9-6.4c0.6-2.6,1.2-5.1,1.9-7.7c5.8-21.5,15.9-41.6,29.3-59.3c1.5-2-1-5.4-3.4-4.4
					c-22.2,9.2-36.4,28.8-47.1,49.5c-3,5.9-5.8,11.8-8.5,17.8c0.9-0.5,1.7-1,2.6-1.5c-13.8-1.2-21.7-16.8-18.6-29.4
					c4.2-16.6,20.2-27.1,34-35.4c9.1-5.5,18.3-10.7,26.4-17.5c2.1-1.7,0.3-5.1-2.1-5.1c-25.9-0.2-51.8,9.9-70.2,28.3h4.2
					c-8.8-7.2-9.5-19.2-5.5-29.2c4.8-11.9,16.3-19.2,27.6-24.2c7.2-3.2,14.8-5.7,22.4-8.1c3.7-1.2,2.1-7-1.6-5.8
					c-14.4,4.6-29.3,9.4-41.2,19.1c-10.1,8.2-16.9,21-15.4,34.2c0.8,7.1,3.9,13.6,9.4,18.1c1.2,1,3,1.2,4.2,0
					c17.3-17.3,41.6-26.7,65.9-26.5c-0.7-1.7-1.4-3.4-2.1-5.1c-15.2,12.7-34.5,19.7-48.7,33.9c-6.3,6.3-11.6,14.1-13.5,22.9
					c-1.6,7.5-0.2,15.4,3.6,22c4.5,7.7,12.1,12.9,21,13.7c0.9,0.1,2.2-0.6,2.6-1.5c9-19.9,18.9-40.9,36.1-55.1
					c4.7-3.9,10.1-7.2,15.8-9.5c-1.1-1.5-2.3-2.9-3.4-4.4c-12.2,16.2-21.8,34.5-27.9,53.9c-1.5,4.8-2.8,9.6-3.9,14.6
					c-1,4.4-2.1,9.4,0.5,13.4c2.7,4.1,7.8,5.3,12.2,6.7c5.5,1.8,11,3.6,16.5,5.4c2.3,0.7,4.6,1.7,7.1,1.4s4.5-1.9,5.2-4.3
					c0.6-2,0.2-4.1-0.1-6.1c-0.5-2.9-0.8-5.8-1.1-8.7c-1-11.1-0.6-22.4,1.3-33.4c1.2-7.3,3-18.5,11.9-19.8c2.8-0.4,6.5,0.2,7.5,3.2
					c0.7,2.1,0.1,4.6-0.3,6.7c-0.6,2.6-1.4,5.1-2.3,7.6c-3.9,10.7-10.2,20.4-13.4,31.3c-3,10.2-3.5,21.5,2.2,31
					c0.9,1.5,2.6,1.7,4.1,1.1c20.4-8.8,46.7-3.9,62.1,12.2c1.5,1.6,4.6,0.9,5-1.3c1.5-7.6,4.2-14.8,8.2-21.5
					c4-6.8,9.3-12.2,14.5-17.9c4.8-5.3,8.5-11.3,8.8-18.6c0.2-6.6-2.4-13.1-6.2-18.4c-4.7-6.7-11.1-12.1-18.3-15.9
					c-2.8-1.5-6.4,2.5-3.6,4.7c15.2,12,28.4,26.4,38.8,42.8c1.1,1.7,3.2,1.9,4.7,0.6c15.4-12.9,21.6-35.6,14.2-54.4
					c-7.6-19.3-26.6-30-45.5-36.1c-11.3-3.6-23.1-5.9-34.8-7.9v5.8c23.5-7.4,51-3.1,70.5,12.1c1.8,1.4,5.4,0.8,5.1-2.1
					c-3.4-36-34.3-66.3-69.6-72c-16.4-2.6-34.9,0.3-48,11c-6.3,5.2-10.7,12.5-11.8,20.7c-1.5,11.3,2.9,22.2,8,32
					c6.5,12.2,13.8,24.1,20.7,36c7.1,12.2,14.2,24.4,21.3,36.7c1.5,2.6,5.6,1.5,5.6-1.5c0-15.7-3.4-31.2-9.6-45.5
					c-3.1-7.1-7-13.9-11.5-20.2s-9.5-13-15.8-17.6c-6.5-4.8-14.9-3.6-22.2-1.6c-6.9,1.9-13.4,5.2-19,9.6
					c-11.8,9-20.1,21.7-24.1,35.9c-10,35.3,4.5,70.7,9.9,105.4c5.3,34.4,2.1,69.5-0.3,104c-2.4,34.3-4.2,69.3,3.5,103.1
					c1,4.2,2.1,8.3,3.3,12.4c0.8,2.7,5.2,3,5.8,0c9-44.7,5.1-92-11.6-134.5c-7.3-18.6-18.1-36.9-36.2-46.7
					c-8.6-4.7-18.5-7.4-28.4-7.1c-10.3,0.4-19.6,4.5-27.7,10.8c-9.6,7.6-17.5,17.5-25.7,26.6c-9.5,10.4-18.9,20.8-28.4,31.2
					c1.7,1,3.3,1.9,5,2.9c4.7-25.1,23.5-44.2,42.8-59.5c5.1-4,10.3-7.9,15.6-11.6c5.6-3.9,11.6-7.6,18-10c6.1-2.3,12.7-3.4,19.1-1.6
					c4.6,1.4,8.7,4.2,11.4,8.2c6.3,9.3,6.3,21.9,3.4,32.3l4.4-1.8c-13.5-10.2-31.2-13.8-47.6-10.7c-2.8,0.5-2.9,5.4,0,5.8
					c7.1,1,14,3,20.5,6.1c6,2.9,12.3,6.6,16.6,11.9c1.9,2.3,3.6,5.3,3.3,8.3c-0.3,2.9-2.3,5.1-4.4,7c-2.3,2-4.9,3.7-7.3,5.6
					c-2.7,2.1-5.1,4.4-7.3,7c-5,5.8-8.7,12.4-10.9,19.7c1.8-0.2,3.7-0.5,5.5-0.7c-8.3-19.2-17.7-39-36-50.5
					c-2.5-1.5-5.8,1.6-4.1,4.1c4.5,6.5,9,13,13.5,19.6c2.3,3.4,4.7,6.7,7,10.1c1.7,2.4,4.7,5.5,5,8.6c0.5,5.3-7.7,7.7-11.6,8.8
					c-5.5,1.7-11.2,3.6-14.6,8.6c1.8,0.2,3.7,0.5,5.5,0.7c-4.6-15.8-11.3-30.9-19.7-45c-1-1.6-3.4-2-4.7-0.6
					c-6.7,7-5.1,17.2-0.9,25.1c4.5,8.6,12.7,15.2,14.5,25c1.2-1.2,2.5-2.5,3.7-3.7c-13.3-2-27.5,2.3-36.7,12.4
					c1.6,1.2,3.1,2.4,4.7,3.6c6.7-15,8.3-31.8,4.1-47.8c-0.4-1.7-2.8-3-4.4-1.8c-10.3,7.9-10,20.7-11.1,32.4c-0.6,6-1.8,12-5.5,16.9
					c-2.4,3.1-5.5,5.8-8.4,8.4c-2.8,2.5-5.7,5-8.6,7.5c-6.7,5.6-14,10.7-22.1,14c1.1,1.5,2.3,2.9,3.4,4.4
					c9.3-16.6,17.6-33.7,25-51.3c0.9-2.1-1.7-4.3-3.7-3.7c-8.2,2.6-15.4,7.6-20.5,14.5c-2.5,3.4-4.4,7.2-5.6,11.2
					c-1.3,4.5-1.6,9.3-3.6,13.6c-1.5,3.2-4.5,6.1-8.1,6.7c-3.2,0.5-5.8-1.6-6.2-4.7c-0.4-3.2,0.7-6.6,2-9.4c2-4.2,4.5-8.2,7-12.1
					c6.2-9.7,13.1-18.8,20.9-27.3c2.3-2.5-0.6-6.3-3.6-4.7c-18.7,9.5-34.3,25.1-43,44.3c1.6-0.2,3.1-0.4,4.7-0.6
					c-9.9-10.5-8.7-26.8-2-38.7c8.2-14.3,22.4-24,35.4-33.6c8.9-6.5,17.8-13,26.7-19.5c2.4-1.7,1.6-5.4-1.5-5.6
					c-15.2-0.8-30.2,4.6-42.8,12.9c-13.1,8.7-23.8,20.3-34.3,31.9c1.7,0.7,3.4,1.4,5.1,2.1c0.3-12.4,0.7-26.4,8.7-36.6
					c4.2-5.3,10.1-8.9,16.1-12c6.7-3.4,13.7-6.5,20.5-9.7c8.4-3.9,16.8-7.9,25.2-11.8c2.4-1.1,1.7-4.9-0.7-5.5
					c-19-4.6-40.5,1.2-53.9,15.7c1.6,1.2,3.1,2.4,4.7,3.6c4.3-6,8.7-12,13.2-17.8c2.3-2.9,4.6-5.8,6.9-8.7c2-2.5,4-5.2,6.5-7.2
					c2.7-2,5.8-2.3,9.1-2.2c3.7,0.2,7.4,0.7,11.1,1c7.7,0.8,15.4,1.5,23.1,2.3c2.1,0.2,3.2-2.1,2.9-3.8c-1.2-7-7.2-12-13.6-14.4
					c-8-3.1-16.9-2-25.1-1c0.9,1.5,1.7,3,2.6,4.5c7-10.6,19.3-17.3,31.8-18.6c12.8-1.3,25.7,3.1,34.9,12.2c5,4.9,8.7,10.9,10.5,17.6
					C-417.1-120.6-411.3-122.2-412.3-125.9"/>
			</g>
			<g id="SCALABLE">
				<rect id="Rectangle" x="-715.1" y="-401.1" class="st5" width="767" height="507"/>
			</g>
		</g>
		<g id="Painting_x2F_Vertical_x2F_Painting-3" transform="translate(2206.000000, 628.000000)">
			<g id="Group-9">
				<polygon id="Fill-1" class="st0" points="-715.1,182.9 -232.1,182.9 -232.1,-401.1 -715.1,-401.1 				"/>
				<polygon id="Fill-2_1_" class="st6" points="-688.1,152.9 -255.3,152.9 -255.3,-76.1 -688.1,-76.1 				"/>
				<polygon id="Fill-3_1_" class="st3" points="-687.9,-55.2 -255.1,-55.2 -255.1,-372.1 -687.9,-372.1 				"/>
				<g id="Group-8" transform="translate(165.000000, 266.000000)">
					<path id="Fill-4_1_" class="st7" d="M-559.1-322.4c0,0.4,0,0.9,0,1.3h-156c0-0.4,0-0.9,0-1.3c0-43.1,34.9-78,78-78
						C-594.1-400.4-559.1-365.5-559.1-322.4"/>
					<path id="Fill-6_1_" class="st8" d="M-559.2-321.1c-0.7,42.5-35.4,76.7-78,76.7s-77.3-34.2-78-76.7H-559.2z"/>
				</g>
			</g>
			<g id="SCALABLE_1_">
				<rect id="Rectangle_1_" x="-715.1" y="-401.1" class="st5" width="483" height="583"/>
			</g>
		</g>
		<path id="Rectangle_2_" class="st1" d="M348.4,630.9h617c21.8,0,39.5,17.7,39.5,39.5l0,0c0,21.8-17.7,39.5-39.5,39.5h-617
			c-21.8,0-39.5-17.7-39.5-39.5l0,0C308.9,648.6,326.5,630.9,348.4,630.9z"/>
		<g id="Small-Objects_x2F_Plant-1" transform="translate(1123.000000, 102.000000)">
			<g id="Group-51" transform="translate(67.000000, 134.000000)">
				<path id="Fill-1_1_" class="st9" d="M-481.6,140l-4-175.7c-2.1-91.4,27.1-157.3,51.9-196.4c26.9-42.5,54-63,55.1-63.9l3,4
					c-0.3,0.2-27.6,21-54,62.8c-24.4,38.5-53,103.4-51,193.4l4,175.7L-481.6,140z"/>
				<path id="Fill-3_2_" class="st9" d="M-568.6,208l-3-183c-1.5-94-34.2-183-61.3-241c-29.4-63-58.9-104.2-59.2-104.6l4.1-2.9
					c0.3,0.4,30,41.9,59.6,105.3C-601-159.7-568.1-70-566.5,24.9l3,183L-568.6,208z"/>
				<path id="Fill-5_1_" class="st9" d="M-546.9,45.9c-0.4,0-0.9-0.1-1.3-0.3c-2-1-4.4-2.2-3.5-49.8c0.9-44-5.2-117.1-38.7-215.7
					c-20.1-59-40.8-99.7-41-100.1l4.4-2.3c0.2,0.4,21.1,41.3,41.3,100.7c18.7,54.8,40.6,137,39,217.5c-0.4,20.3-0.1,31.7,0.3,38
					c2.9-15.8,6.6-53.6,7.9-99.8c1.2-41.1,1.4-118.2-11.2-173.7l-29-128l4.9-1.1l29,128c12.9,56.8,12.6,135.5,11.2,177.4
					c-0.8,26.7-2.5,53.1-4.8,74.2c-3.3,31.6-5.8,33.5-6.8,34.3C-545.6,45.7-546.3,45.9-546.9,45.9"/>
				<path id="Fill-7_1_" class="st9" d="M-511.2,79.3l-1.2-1.1c-0.9-0.9-1.1-1-1-12.5c0.1-7.5,0.3-17.5,0.6-28.1
					c0.3-9.7,0.8-22,1.5-36.3c0.9-155.8-11.2-360-11.4-362.2l5-0.3c0.1,1.9,9,152.4,11,293.6c5.4-63.9,15.5-146.1,34.1-200.3
					c20-58.4,42.5-90.5,66.8-95.2c18.1-3.5,29.9,9.8,30.4,10.4l-3.8,3.3c-0.4-0.5-10.5-11.7-25.8-8.7c-15.4,3-38.8,21.4-63,91.9
					C-492.1-195.5-502.4-74-506.3,3.6c-0.1,10-0.2,19.8-0.4,29.3c-0.3,13.8-0.6,25.3-0.9,33.1c-0.5,11.9-0.5,11.9-2.2,12.6
					L-511.2,79.3z"/>
				<path id="Fill-9_1_" class="st9" d="M-516.6,88.2L-537-72.6c-20.1-158.7-64-265.5-64.4-266.5l4.6-1.9
					c0.4,1.1,44.6,108.5,64.8,267.8L-514.9,62l28.3-423.2l5,0.3l-30,449L-516.6,88.2z"/>
				<g id="Group-13" transform="translate(0.000000, 61.893000)">
					<g id="Clip-12">
					</g>
					<path id="Fill-11_1_" class="st8" d="M-671.1-379c0,12.1-9.9,22-22,22s-22-9.9-22-22c0-12.2,9.9-22,22-22
						S-671.1-391.1-671.1-379"/>
				</g>
				<path id="Fill-14_1_" class="st8" d="M-609.1-319.1c0,12.1-9.9,22-22,22s-22-9.9-22-22c0-12.2,9.9-22,22-22
					S-609.1-331.2-609.1-319.1"/>
				<path id="Fill-16_1_" class="st8" d="M-580.1-339.1c0,12.1-9.9,22-22,22s-22-9.9-22-22c0-12.2,9.9-22,22-22
					S-580.1-351.2-580.1-339.1"/>
				<path id="Fill-18" class="st8" d="M-554.1-370.1c0,12.2-9.8,22-22,22c-12.1,0-22-9.9-22-22s9.9-22,22-22
					S-554.1-382.2-554.1-370.1"/>
				<path id="Fill-20" class="st8" d="M-499.1-357.1c0,12.1-9.9,22-22,22s-22-9.9-22-22c0-12.2,9.9-22,22-22
					S-499.1-369.2-499.1-357.1"/>
				<g id="Group-24" transform="translate(213.000000, 0.893000)">
					<g id="Clip-23">
					</g>
					<path id="Fill-22" class="st8" d="M-671.1-379c0,12.1-9.9,22-22,22s-22-9.9-22-22c0-12.2,9.9-22,22-22S-671.1-391.1-671.1-379"
						/>
				</g>
				<path id="Fill-25" class="st8" d="M-351.1-354.1c0,12.1-9.9,22-22,22s-22-9.9-22-22c0-12.2,9.9-22,22-22
					S-351.1-366.2-351.1-354.1"/>
				<path id="Fill-27" class="st8" d="M-356.1-296.1c0,12.1-9.9,22-22,22s-22-9.9-22-22s9.9-22,22-22S-356.1-308.2-356.1-296.1"/>
				<path id="Fill-29" class="st8" d="M-669.1-291.1c0,12.1-9.9,22-22,22s-22-9.8-22-22s9.9-22,22-22S-669.1-303.2-669.1-291.1"/>
				<path id="Fill-31" class="st8" d="M-647.1-345.1c0,12.1-9.9,22-22,22s-22-9.9-22-22c0-12.2,9.9-22,22-22
					S-647.1-357.2-647.1-345.1"/>
				<path id="Fill-33" class="st8" d="M-574.1-308.1c0,12.1-9.8,22-22,22c-12.1,0-22-9.9-22-22c0-12.2,9.9-22,22-22
					S-574.1-320.2-574.1-308.1"/>
				<path id="Fill-35" class="st8" d="M-387.1-337.1c0,12.1-9.9,22-22,22s-22-9.9-22-22c0-12.2,9.9-22,22-22
					S-387.1-349.2-387.1-337.1"/>
				<path id="Fill-37" class="st8" d="M-395.1-287.1c0,12.1-9.9,22-22,22s-22-9.8-22-22s9.9-22,22-22S-395.1-299.2-395.1-287.1"/>
				<path id="Fill-39" class="st8" d="M-611.1-288.1c0,12.1-9.9,22-22,22s-22-9.8-22-22s9.9-22,22-22S-611.1-300.2-611.1-288.1"/>
				<path id="Fill-41" class="st8" d="M-540.1-346.1c0,12.1-9.8,22-22,22c-12.1,0-22-9.9-22-22c0-12.2,9.9-22,22-22
					S-540.1-358.2-540.1-346.1"/>
				<path id="Fill-43" class="st8" d="M-448.1-344.1c0,12.1-9.9,22-22,22s-22-9.9-22-22c0-12.2,9.9-22,22-22
					S-448.1-356.2-448.1-344.1"/>
				<path id="Fill-45_1_" class="st8" d="M-386.1-372.1c0,12.2-9.9,22-22,22s-22-9.9-22-22s9.9-22,22-22S-386.1-384.2-386.1-372.1"
					/>
				<path id="Fill-47_1_" class="st8" d="M-364.1-265.1c0,12.2-9.9,22-22,22s-22-9.8-22-22c0-12.1,9.9-22,22-22
					S-364.1-277.2-364.1-265.1"/>
				<path id="Fill-49" class="st10" d="M-611.1-33.1l1,169c0,0-80,65-74,121s91.7,137.9,91.7,137.9l138.7-1.3
					c0,0,92.6-81.6,90.6-133.6s-72-121-72-121l-1-170L-611.1-33.1z"/>
			</g>
			<g id="SCALABLE_2_">
				<rect id="Rectangle_3_" x="-715.1" y="-401.1" class="st5" width="498" height="930"/>
			</g>
		</g>
		<g id="Tall-Vase-Plant_x2F_Plant-2" transform="translate(4012.000000, 650.000000)">
			<g id="Tall-Vase-Plant-3" transform="translate(0.000000, 130.000000)">
				<path id="Fill-29_1_" class="st7" d="M96.7,708.9c0,0,384.9-76.8,524.2-390.1C760.1,5.5,508.3,29.2,345.6,187.8
					S107.1,523.8,96.7,708.9"/>
				<path id="Fill-30" class="st9" d="M9,1111.9c0-0.5-3.1-49.6,8.7-128.9c10.9-73,37-187.5,99.7-318.1
					C180,534.4,248.9,434.5,295.7,373.7c50.7-66,87.1-101.6,87.5-101.9l5.6,5.7c-0.4,0.3-36.5,35.7-86.9,101.2
					c-46.5,60.5-115,159.9-177.3,289.6s-88.2,243.2-99,315.6c-11.7,78.5-8.7,127-8.6,127.4L9,1111.9z"/>
				<path id="Fill-31_1_" class="st11" d="M6.1,406.3c0,0,338.6-165.9,365.6-503.7S168.3-352.5,67.4-159.7S-45.9,223.7,6.1,406.3"/>
				<path id="Fill-32" class="st7" d="M-55.5,504c0,0-364.7-295.3-315-678.6s305.2-215.9,379.1,31S51.1,318.7-55.5,504"/>
				<path id="Fill-33_1_" class="st11" d="M-89.7,533.4c0,0-459.8-93.5-592.7-456.4c-132.9-363,171-332.4,350.6-147.6
					C-152.3,114.3-80.8,319.8-89.7,533.4"/>
				<path id="Fill-34" class="st9" d="M-34,1161c-0.2-2.1-18.3-209.3,1.2-469.7c11.5-152.9,33.5-294,65.5-419.3
					c40-156.8,95.8-289.2,165.9-393.6l6.6,4.5C135.8-13.5,80.3,118.1,40.5,273.9C8.6,398.8-13.3,539.4-24.8,691.8
					c-19.5,259.7-1.4,466.4-1.3,468.5L-34,1161z"/>
				<path id="Fill-35_1_" class="st9" d="M-194.1,1418l-7.6-2.5c0.7-2.2,73.5-222.6,108.4-533.4c20.5-182.5,24.1-359.9,10.7-527.5
					C-99.4,145.3-142.8-49-211.8-222.9l7.4-2.9C-135.1-51.2-91.4,143.9-74.6,354c13.4,168.1,9.8,346.1-10.7,529.1
					C-120.3,1194.7-193.3,1415.8-194.1,1418"/>
				<path id="Fill-36" class="st6" d="M-112,1815.6H16c127,0,230-103,230-230v-503l0,0h-588v503
					C-342,1712.7-239.1,1815.6-112,1815.6z"/>
				<path id="Fill-38" class="st9" d="M-76,630.9c-3.9-64.6-29.5-139-76-221c-37.9-66.7-89.7-138.8-154.2-214.3
					C-407.8,76.6-513.8-19.1-554.7-54.7c-1.6-1.4-2.6-2.3-3-2.7l5.4-5.9c0.4,0.4,1.4,1.2,2.9,2.6C-508.4-25-402,71-300.1,190.4
					C-235.3,266.3-183.2,338.8-145,406c47.1,83.1,73,158.6,77,224.5L-76,630.9z"/>
			</g>
			<g id="SCALABLE_3_">
				<rect id="Rectangle_4_" x="-715.1" y="-401.1" class="st5" width="1377" height="2347"/>
			</g>
		</g>
		<g id="Tall-Vase-Plant_x2F_Plant-3" transform="translate(0.000000, 650.000000)">
			<g id="Tall-Vase-Plant-1" transform="translate(208.000000, 366.000000)">
				<path id="Fill-39_1_" class="st9" d="M-255.6,840.3c-0.1-1.1-6-107.3-29.8-242.7c-14-79.4-31.2-153.2-51.4-219.2
					c-25.1-82.4-54.8-152.9-88.2-209.6l6.9-4.1c33.7,57.2,63.6,128.3,88.9,211.4c20.2,66.4,37.6,140.4,51.6,220.2
					c23.8,135.8,29.8,242.5,29.8,243.5L-255.6,840.3z"/>
				<path id="Fill-40" class="st7" d="M-341.2,114.7c-1.2,49.1-42,88-91.1,86.8s-88-42-86.8-91.1s42-88,91.1-86.8
					C-378.9,24.8-340,65.6-341.2,114.7"/>
				<path id="Fill-41_1_" class="st11" d="M-322.7,223.3c0,0-146.4-289.2-6.8-516.8C-189.8-521.1-76-343.4-99.2-166.8
					S-203.2,136.6-322.7,223.3"/>
				<path id="Fill-42" class="st9" d="M-365.2,277.6l-5.3-6c33.2-29.7,62.4-75.3,86.8-135.4c19.9-49,36.7-108,50-175.2
					c20.9-106,27.3-204.4,29.1-241.8c0.1-1.5,0.1-2.4,0.1-2.8l8,0.5c0,0.4-0.1,1.3-0.1,2.6c-1.8,37.6-8.2,136.5-29.2,242.9
					c-13.4,67.7-30.3,127.1-50.4,176.6C-301.1,200.5-331,247.1-365.2,277.6"/>
				<path id="Fill-43_1_" class="st9" d="M-126.3,379.9c0,0-154.6,232.3-210.6,522.2s20.1,417.8,20.1,417.8l62.9-30.9
					c0,0-37.4-173.9-0.7-375.3C-217.8,712.3-70.2,419-70.2,419L-126.3,379.9z"/>
				<path id="Fill-44" class="st3" d="M-231,52.3c0,0-55.5,72.6,22.8,154.5c78.4,81.9-23.7,197.8,88.7,247.3c0,0,59.9,31,114.6-44.5
					s61.2-86.3,137-74.2c75.7,12.1,113.2-68,113.2-68s-92.3-83.5-258.2-135C-178.7,80.9-231,52.3-231,52.3"/>
				<path id="Fill-45_2_" class="st12" d="M-231,52.3c0,0,117.5,111.8,275.8,157.6s200.5,57.5,200.5,57.5S180.6,187.8,50.7,131
					S-166,85.4-231,52.3"/>
				<path id="Fill-46_1_" class="st9" d="M-394.9,566.1c0,0,47.3,159.8,158.8,296.4s199.2,150.7,199.2,150.7l9.9-40.7
					c0,0-94-49.4-172.3-143.3s-156.3-273.9-156.3-273.9L-394.9,566.1z"/>
				<path id="Fill-47_2_" class="st2" d="M-593.2,489.7c0,0,12,53.2,79.6,48.7c67.5-4.6,81.6,86.6,147.3,54c0,0,37.1-15.6,23.5-69.6
					c-13.7-54-16.1-61.1,18.4-91.2s12.1-77.9,12.1-77.9S-385.9,364-473,420.4C-560,476.7-593.2,489.7-593.2,489.7"/>
				<path id="Fill-48" class="st1" d="M-593.2,489.7c0,0,96.3-11.1,177.9-66.1c81.6-55.1,103.1-69.9,103.1-69.9s-61.3-0.8-137.1,37
					S-553.1,472.6-593.2,489.7"/>
				<path id="Fill-49_1_" class="st2" d="M-395.1,1579.6h266c176.7,0,320-143.3,320-320v-521l0,0h-906v521
					C-715.1,1436.3-571.9,1579.6-395.1,1579.6z"/>
			</g>
			<g id="SCALABLE_4_">
				<rect id="Rectangle_5_" x="-715.1" y="-401.1" class="st5" width="1377" height="2347"/>
			</g>
		</g>
		<path id="Object-1" class="st0" d="M5231.9,2595.9h-1003c-46.4,0-84-37.6-84-84v-28c0-46.4,37.6-84,84-84h1003
			c46.4,0,84,37.6,84,84v28C5315.9,2558.3,5278.3,2595.9,5231.9,2595.9"/>
		<g id="Sofa" transform="translate(820.838267, 1386.920000)">
			<path id="Fill-50" class="st9" d="M2905.5,592.9H-467.9c-47.9,0-86.8-38.9-86.8-86.8v-820.4c0-47.9,38.9-86.8,86.8-86.8h3373.4
				c47.9,0,86.8,38.9,86.8,86.8v820.4C2992.3,554,2953.5,592.9,2905.5,592.9"/>
			<polygon id="Fill-51" class="st11" points="-338.7,711.9 2714.3,711.9 2714.3,386.9 -338.7,386.9 			"/>
			<polygon id="Fill-52" class="st9" points="-442.1,953.4 -519.1,1208.4 -458.1,1204.4 -271.9,952.9 			"/>
			<polygon id="Fill-53" class="st9" points="2874.1,953.4 2951.1,1208.4 2890.1,1204.4 2703.9,952.9 			"/>
			<path id="Fill-54" class="st10" d="M-253.7,4.9c0,0,10-11,124,12S155.2-18.5,179.8-0.8s20.6,357.7,85.6,444.7s-163-40-373,49
				s-40-261-40-261L-253.7,4.9z"/>
			<path id="Fill-55" class="st1" d="M-375.3-94.9c0,0-34.5,269.5,174.8,524.2C8.8,683.9-74.7,231.6-196,58.7
				C-317.3-114.3-373.2-162.8-375.3-94.9"/>
			<path id="Fill-56" class="st10" d="M2759.3,292.9c-2-5.6-10-87-5-189s-146.4,15.5-356-22c-118.3-21.2-300.5-62.2-268,34
				c34,100.5-51,276,9,285s377-49,516,13S2788.3,373.9,2759.3,292.9"/>
			<path id="Fill-57" class="st13" d="M-712.1,215.7l258.5,710.5c7.1,19.6,25.8,32.7,46.7,32.8l3245.5,9.8
				c21.3,0.1,40.4-13.5,47.3-33.7l254.8-742.2c10.8-31.5-11.7-64.5-44.9-66l-241-10.6c-19.7-0.9-38.1,10-46.8,27.6l-209,421.4
				c-8.4,16.9-25.6,27.7-44.5,27.7L-122,598.8c-19.3,0-37-11.1-45.2-28.6l-188.6-400.7c-8.5-18-26.8-29.2-46.6-28.6l-264.4,7.9
				C-700.7,149.9-723.7,183.8-712.1,215.7"/>
		</g>
	</g>
	<g id="Pet_x2F_Cat-2" transform="translate(5768.214000, 2258.420000)">
		<g id="Group-63" transform="translate(332.000000, 597.000000)">
			<path id="Fill-1_2_" class="st1" d="M-66.9-210.3c0,0,10.3-34.5,57.9-59.9l-2.1,47.2L-66.9-210.3z"/>
			<path id="Fill-3_3_" class="st2" d="M-11.2-266.7c-35.4,19.9-48.7,44.8-52.5,53.7l50.7-11.6L-11.2-266.7z M-69.8-207.6l1-3.3
				c0.4-1.4,11-35.6,58.8-61.1l3.1-1.7l-2.3,52.2L-69.8-207.6z"/>
			<path id="Fill-5_2_" class="st2" d="M-36.6-212.3c0,0,8-36.3,26-55.6l-1.9,51.6L-36.6-212.3z"/>
			<path id="Fill-7_2_" class="st1" d="M1.2-196.5c0,0,10.3-34.5,57.9-59.9L56.6-196L1.2-196.5z"/>
			<path id="Fill-9_2_" class="st2" d="M4.1-198.4l50.6,0.4l2.2-54.9C20.4-232.4,7.4-206.5,4.1-198.4L4.1-198.4z M58.5-194l-60-0.5
				l0.8-2.5c0.4-1.4,11-35.6,58.8-61.1l3.1-1.6L58.5-194z"/>
			<path id="Fill-11_2_" class="st2" d="M31.6-198.5c0,0,8-36.3,26-55.6l-1.9,51.6L31.6-198.5z"/>
			<path id="Fill-13_1_" class="st1" d="M112-61.2c-7.4,20.6-23.4,23.4-23.4,23.4l-109.2,2.9L-97-125.6l-18.5,114.2H-631l-9.7-36.8
				c0,0-84.5-239.3,35.7-316.2s240.4-21.7,315.1,61.7c64.4,71.9,169.8,106.7,197.7,115c12.6-18.2,34-35.3,70.5-37.6
				C60-230.4,91.5-168.1,88.6-120.7c0,0-1.7,8.6,8,16C106.3-97.2,119.5-81.8,112-61.2"/>
			<path id="Fill-15_1_" class="st1" d="M-169.2-151.6c0,0,95-1,135.3,46.7C6.4-57.1,6.2-57.6,16-57.6S56.5-58,56.5-58l-10,48.9
				l-190.4-2.3L-169.2-151.6z"/>
			<path id="Fill-17" class="st14" d="M151.7-8.5h-25.1c-13.7,0-24.8-11.1-24.8-24.8s11.1-24.8,24.8-24.8h25.1
				c13.7,0,24.8,11.1,24.8,24.8C176.5-19.6,165.4-8.5,151.7-8.5"/>
			<path id="Fill-19" class="st2" d="M126.5-56.2c-12.6,0-22.8,10.2-22.8,22.8s10.2,22.8,22.8,22.8h25.1c12.6,0,22.8-10.2,22.8-22.8
				s-10.2-22.8-22.8-22.8H126.5z M151.7-6.5h-25.1c-14.8,0-26.8-12-26.8-26.8s12-26.8,26.8-26.8h25.1c14.8,0,26.8,12,26.8,26.8
				S166.5-6.5,151.7-6.5L151.7-6.5z"/>
			<path id="Fill-21" class="st14" d="M141.6-41.8c0,0,7.7,3.4,9,12.3s0.7,21,0.7,21"/>
			<path id="Fill-23" class="st2" d="M153.3-8.4l-4-0.2c0-0.1,0.6-12-0.6-20.6c-1.1-7.6-7.6-10.6-7.9-10.8l1.6-3.7
				c0.4,0.2,8.8,4,10.2,13.8C153.9-20.8,153.3-8.9,153.3-8.4"/>
			<path id="Fill-25_1_" class="st1" d="M-164.7-150.7c0,0,85.5-2.6,124.3,38.8S4.7-56.8,23.1-58.4c18.4-1.6,47.7,1,47.7,1L53-40.6"
				/>
			<path id="Fill-27_1_" class="st2" d="M54.3-39.1L51.6-42l14.5-13.7c-8.9-0.7-29.2-1.9-42.9-0.7C8-55.1,0.5-63.6-19.8-86.2
				c-5.9-6.6-13.2-14.8-22.1-24.3c-37.7-40.3-121.9-38.2-122.8-38.2l-0.1-4c0.2,0,21.9-0.6,48,3.9c24.2,4.2,57.4,13.7,77.8,35.5
				c8.9,9.5,16.3,17.8,22.2,24.4C3.1-66.7,9.8-59.3,22.9-60.4c18.3-1.6,46.9,0.9,48.1,1l4.4,0.4L54.3-39.1z"/>
			<polygon id="Fill-29_2_" class="st2" points="-38.6,-89.6 -38.6,-93.6 23.5,-94.7 -32.5,-128.6 -30.5,-132 37.4,-90.9 			"/>
			<path id="Fill-31_2_" class="st2" d="M-20.9-61.1c0.2-0.2,0.5-0.6,0.5-1.3h-4c0-1.6,0-1.9,27.5-17.4
				c13.1-7.4,26.3-14.7,26.4-14.8l1.9,3.5C12.3-80.5-18.8-63-20.9-61.1"/>
			<path id="Fill-33_2_" class="st2" d="M105.8-48.9c-14.4,20.7-47.6-6.4-47.6-6.4s-5-5.3-0.3-18.7s21.3-15.2,21.3-15.2l31,0.5
				l-8.7,5.6l10.4,1.1C111.9-82,120.2-69.6,105.8-48.9"/>
			<path id="Fill-35_2_" class="st14" d="M76.1-9.1H46.5C32.8-9.1,21.7-20.3,21.7-34s11.1-24.8,24.8-24.8h29.6
				C89.9-58.8,101-47.7,101-34S89.9-9.1,76.1-9.1"/>
			<path id="Fill-37_1_" class="st2" d="M46.5-56.8c-12.6,0-22.8,10.2-22.8,22.8s10.2,22.8,22.8,22.8h29.6C88.7-11.1,99-21.4,99-34
				S88.8-56.8,76.2-56.8H46.5z M76.1-7.1H46.5c-14.8,0-26.8-12-26.8-26.8s12-26.8,26.8-26.8h29.6c14.8,0,26.8,12,26.8,26.8
				S90.9-7.1,76.1-7.1L76.1-7.1z"/>
			<path id="Fill-39_2_" class="st14" d="M64-42.5c0,0,8.2,3.4,9.6,12.3s0.7,21,0.7,21"/>
			<path id="Fill-41_2_" class="st2" d="M76.2-9.1l-4-0.2c0-0.1,0.6-12-0.7-20.6c-1.2-7.6-8.1-10.6-8.4-10.8l1.5-3.7
				c0.4,0.2,9.3,4,10.8,13.8C76.9-21.5,76.3-9.6,76.2-9.1"/>
			<path id="Fill-43_2_" class="st15" d="M89.1-89.3c0,0-1.7,19.8,24.3,23.7c0,0,2.6-6.1-0.1-15.1s-3.4-8.4-3.4-8.4L89.1-89.3z"/>
			<path id="Fill-45_3_" class="st2" d="M-230.4-57.6c-0.4,0-45-0.7-66.5-2.1c-12.2-0.8-31.7-34.5-62.5-90
				c-20.6-37.1-41.8-75.5-59.2-96c-38.2-45-136.8-53.7-137.8-53.8l0.3-4c0.3,0,25.5,2.2,55.2,10c27.5,7.2,64.7,21,85.3,45.2
				c17.6,20.8,39,59.3,59.6,96.6c23.8,42.9,48.3,87.2,59.2,88c21.4,1.4,65.9,2.1,66.3,2.1L-230.4-57.6z"/>
			<path id="Fill-47_3_" class="st14" d="M-312.6-67.6c-11.9,12.1-30.4,21.7-51.6,29.2l-27.8-65.8c15.6-4.4,24.8-7.6,24.8-7.6
				c0.5-19.9,22.1-29.1,22.1-29.1C-319.2-155.9-264.3-116.7-312.6-67.6"/>
			<path id="Fill-49_2_" class="st2" d="M-389.3-102.8l26.2,62C-340.9-49-324.4-58.4-314-69l0,0c28.5-29,17.5-50.2,11.4-58
				c-10.5-13.5-29.5-19.1-41.5-12.1l-0.2,0.1c-0.2,0.1-20.5,9-20.9,27.3v1.4l-1.3,0.5C-366.6-109.9-375.1-106.9-389.3-102.8
				L-389.3-102.8z M-365.3-35.9l-29.4-69.6l2.2-0.6c12.1-3.4,20.4-6.2,23.5-7.2c0.6-8.2,4.7-15.8,11.9-22c5.3-4.6,10.4-7,11.3-7.4
				c13.6-7.8,34.9-1.8,46.5,13.2c13.9,18,9.6,41.6-11.7,63.3l0,0c-11.1,11.3-28.7,21.3-52.4,29.7L-365.3-35.9z"/>
			<path id="Fill-51_1_" class="st1" d="M-364.2-38.4C-429.2-15.2-519.1-11-519.1-11l-177.4-0.8c0,0-16.7-5-16.7-29.2
				c0-24.1,25-30,25-30s76.8-4.9,160.6-9.5c54.7-3,106.2-15.5,135.5-23.7L-364.2-38.4z"/>
			<path id="Fill-53_1_" class="st2" d="M-696.2-13.8l177,0.8c2.6-0.1,89.1-4.6,152.3-26.6l-26.3-62.2
				c-27.2,7.6-79.4,20.3-134.2,23.3c-80.9,4.5-156.3,9.2-160.4,9.5c-2.2,0.6-23.3,6.5-23.3,28C-711.1-20-698.2-14.5-696.2-13.8
				L-696.2-13.8z M-519.1-9l-177.7-0.8l-0.3-0.1c-0.2-0.1-4.7-1.5-9.2-6c-4.1-4.2-8.9-11.9-8.9-25c0-25.4,26.3-31.9,26.5-31.9h0.3
				c0.8,0,77.8-4.9,160.6-9.5c55.6-3.1,108.5-16.1,135.1-23.7l1.7-0.5l29.3,69.4l-2,0.7C-428-13.5-518.1-9-519.1-9L-519.1-9z"/>
			<path id="Fill-55_1_" class="st14" d="M-222.6-13.7h-29.6c-13.7,0-24.8-11.1-24.8-24.8s11.1-24.8,24.8-24.8h29.6
				c13.7,0,24.8,11.1,24.8,24.8C-197.8-24.8-208.9-13.7-222.6-13.7"/>
			<path id="Fill-57_1_" class="st2" d="M-252.3-61.4c-12.6,0-22.8,10.2-22.8,22.8s10.2,22.8,22.8,22.8h29.6
				c12.6,0,22.8-10.2,22.8-22.8s-10.2-22.8-22.8-22.8H-252.3z M-222.6-11.7h-29.6c-14.8,0-26.8-12-26.8-26.8s12-26.8,26.8-26.8h29.6
				c14.8,0,26.8,12,26.8,26.8S-207.8-11.7-222.6-11.7L-222.6-11.7z"/>
			<path id="Fill-59" class="st14" d="M-234.8-47c0,0,8.2,3.4,9.6,12.3c1.4,8.9,0.7,21,0.7,21"/>
			<path id="Fill-61" class="st2" d="M-222.6-13.6l-4-0.2c0-0.1,0.6-12-0.7-20.6c-1.2-7.6-8.1-10.6-8.4-10.8l1.5-3.7
				c0.4,0.2,9.3,4,10.8,13.8C-221.9-26-222.5-14.1-222.6-13.6"/>
		</g>
		<g id="SCALABLE_5_">
			<rect id="Rectangle_6_" x="-715.1" y="-401.1" class="st5" width="1558" height="1091"/>
		</g>
	</g>
	<g id="Master_x2F_Character_x2F_Sitting-On-Floor" transform="translate(3128.000000, 293.000000)" class="st16">
		<g id="Upper-Body_x2F_Coffee-and-Phone" transform="translate(911.000000, 1121.000000)" class="st17">
			<path id="Neck" class="st18" d="M9.8-181.1c0,0-3.7,81.2-51,109.8c-43,26,48,176.8,145.9,167.8C158.3,91.6,170.8-55,170.8-55
				s-43.3-8.4-27.3-74.3L9.8-181.1z"/>
			<path id="Head" class="st18" d="M88.2-98.6C24.7-106.2-21.1-148-27.5-217.2c-18.4,2.9-22.8-45.1-17.7-60.6s21.9-6.4,21.9-6.4
				c0.9-2.4,1.7-5,2.4-7.7C6.9-405.6,84.5-401.1,84.5-401.1c142.7,7.4,109.2,153.1,101.1,191.7C177.5-170.7,149.5-91.2,88.2-98.6z"
				/>
			<g id="Group-31" transform="translate(252.000000, 332.000000)">
				<path id="Path" class="st18" d="M-590.9-157.1c-113,179-148.6,287.6-106.9,325.8c41.7,38.2,121.2-8.3,238.6-139.4
					C-465.3,0-480.9-32-506.1-66.6C-531.3-101.2-559.5-131.4-590.9-157.1z"/>
				<g id="Group-3" transform="translate(61.000000, 0.170000)">
					<path id="Fill-1_3_" class="st7" d="M60.2-30.1l-82.5-9.6c0,0,21.1,283.9,13.2,283.9c-4.3,0-103.3,53.7-242.1,53.7
						c-106.7,0-237.5-35.3-243-35.6c-0.7,0-1.3-0.5-2-1.3c1.8-19.6,3.2-54.2,4.6-92.4c1-26.8,2-55.4,3.2-81.8
						c1.1-24.6,2.3-47.2,3.8-64.9c6.4-76.9,2-147,2-147l-31.6,85.7l-200.2-72.9c0,0,66.8-97.4,146.5-182.2
						C-488.8-378.6-362-399.9-360-400.3l0,0c0,0-7.1,116,112.8,124.9c99.8,7.4,104.9-112.1,104.9-112.1s116.6,30.4,150.1,59
						c33.4,28.5,181,223.3,181,228.2C188.8-95.4,60.2-30.1,60.2-30.1z"/>
				</g>
				<path id="Fill-4_2_" class="st7" d="M-427.4,86.9c-1.2,26.4-2.2,55-3.2,81.8C-430.9,150.6-430.1,124.4-427.4,86.9"/>
				<path id="Fill-6_2_" class="st6" d="M-12.9,3.5L-117.7,12c-6.3,0.5-11.9-4.2-12.4-10.5l-16.8-206.2c-0.5-6.3,4.2-11.9,10.5-12.4
					l104.9-8.5c6.3-0.5,11.9,4.2,12.4,10.5L-2.4-8.9C-1.8-2.6-6.5,3-12.9,3.5"/>
				<path id="Fill-8_1_" class="st19" d="M-2.2-2.2l-105.3,8.6c-6.2,0.5-11.7-4.1-12.2-10.3L-135.9-203c-0.5-6.2,4.1-11.7,10.3-12.2
					l105.3-8.6c6.2-0.5,11.7,4.1,12.2,10.3L8.2-14.4C8.7-8.2,4-2.7-2.2-2.2"/>
				<path id="Fill-10_1_" class="st6" d="M-19.9-201.2c0.5,6-4,11.2-9.9,11.7c-6,0.5-11.2-4-11.7-9.9c-0.5-6,4-11.2,9.9-11.7
					C-25.6-211.6-20.4-207.1-19.9-201.2"/>
				<g id="Group-14" transform="translate(597.000000, 271.170000)">
					<path id="Fill-12_1_" class="st18" d="M-637.6-280.7c0,0-52.6,11.5-52.9-6.7c0,0,35.7-14.8,43.8-14.2
						c8.1,0.7,45.5,5.1,45.5,5.1l-46.2-22.9l-45.9,14.2c0,0-10.5,0.7-15.2-6.7c-4.7-7.4,0.7-11.8,0.7-11.8l60-19.9
						c0,0,2-6.4-13.1-7.1c-15.2-0.7-48.6-3-48.6-3s-7.4-6.4-4-17.9s22.3-7.4,22.3-7.4s-10.5-10.1,5.4-21.2c0,0,48.6,1.3,66.4,12.5
						c17.9,11.1,140.2,86.2,140.2,86.2l95.2-50C-263.5-204-231.5-116.6-288.1-89.3C-344.7-62.2-461.2-126-637.6-280.7z"/>
				</g>
				<path id="Fill-15_2_" class="st20" d="M12.2-75.8l-47.8-27.1l-59.5-6.4l0.4-4l59.9,6.4c0.3,0,0.5,0.1,0.8,0.2l48.2,27.3
					L12.2-75.8z"/>
				<polygon id="Fill-17_1_" class="st20" points="204,24.2 89.8,-47.6 91.9,-51 206.2,20.8 				"/>
				<polygon id="Fill-17_2_" class="st20" points="-512.3,-57.9 -627,13.3 -629.1,9.9 -514.5,-61.3 				"/>
				<path id="Fill-19_1_" class="st20" d="M8.3-53.9C8-54.1-22-74.3-29.8-77.6c-6-2.5-17.9,2-22,4l-1.7-3.6
					c0.7-0.3,16.4-7.8,25.2-4.1c8.2,3.4,37.5,23.3,38.8,24.1L8.3-53.9z"/>
				<polygon id="Fill-21_1_" class="st18" points="-2,-133 27.5,-87.8 -0.6,-105.5 				"/>
				<polygon id="Fill-23_1_" class="st20" points="26.4,-86.1 -1.6,-103.8 0.5,-107.2 28.6,-89.5 				"/>
				<path id="Fill-27_2_" class="st4" d="M-365.4,23.9l-35.1-0.7c-37-0.7-66.4-31.3-65.7-68.3l2.2-112l159.8,3.1l-2.4,121.3
					C-307.3-0.8-333.6,24.5-365.4,23.9"/>
			</g>
			<g id="Group" transform="translate(455.000000, 614.711100)">
				<path id="Fill-12_2_" class="st18" d="M-670.6-401.1c0,0-14.4,9.3-19.1,14.9c-4.6,5.7-0.5,6.7-10.8,17.5s-28.8,38.1,3.6,79.8
					c32.5,41.7,43.3,38.1,56.7,30.9s14.9-12.4,40.2-14.9c25.2-2.6,49.4-27.3,48.9-33.5l-0.5-6.2c0,0,23.2-8.8,21.6-18.5
					c-1.5-9.8-8.2-8.8-8.2-8.8s4.6-4.6,1-12.9c-3.6-8.2-20.6-6.7-40.2-4.1c-19.6,2.6-70.1,12.9-73.1,10.8c-3.1-2.1-2.1-5.2,9.8-6.7
					c11.8-1.5,59.8-2.1,59.8-15.5s-14.4-16-42.2-15.5s-33-1-39.7,1.5l-6.7,2.6L-670.6-401.1z"/>
				<path id="Fill-14_2_" class="st21" d="M-537.8-339.9c0,0,1.5-1.1-9.5,3.1c-4,1.5-9.7,3.1-17.6,4.6c-29.9,5.7-76.8,16-91.2,18
					c-14.4,2.1-2.6,5.2,30.4-1.5s72.2-15.7,74-16.3C-548.8-332.9-539.8-335.9-537.8-339.9"/>
				<path id="Fill-16_2_" class="st21" d="M-562.4-309.4c0,0-24.4,8.6-36.4,11.6c-12.7,3.2-22.3,7.5-24.9,3.4
					c-2.6-4.1-5.7-5.2-5.7-5.2l-4.1,4.6c0,0,0.7,5.1-1.5,5.7c-4,1-11.8,2.6-11.8,2.6s0.1,2.9,24.1-2.1c6-1.2,17-3,24-5
					c6.4-1.8,29.7-7.8,32.8-10.4C-562.9-306.8-562.4-309.4-562.4-309.4"/>
				<path id="Fill-18_1_" class="st7" d="M-638.1-312c0,0-0.4,20.7,5.5,20.4c5.9-0.3,7.9-0.3,8.9-1.9c1-1.5-1.5-6.7-1.5-12.4
					c0-5.7,0-8.2-4.6-7.7C-634.5-313-637.6-313-638.1-312"/>
			</g>
			<g id="SCALABLE_6_">
				<rect id="Rectangle_7_" x="-715.1" y="-401.1" class="st5" width="1578" height="1152"/>
			</g>
		</g>
		
			<g id="Lower-Body_x2F_Sitting-on-Floor_x2F_Spread-Out-1" transform="translate(1165.000000, 2062.000000) scale(-1, 1) translate(-1165.000000, -2062.000000) translate(0.000000, 1624.000000)" class="st17">
			<g id="Lower-Body" transform="translate(384.000000, 0.000000)">
				<polygon id="Fill-1_4_" class="st22" points="2341.4,236.5 2313.4,339.3 2364.4,356.5 2396.4,255.5 				"/>
				<polygon id="Fill-2_2_" class="st23" points="2393.4,248.5 2357.4,362.5 2409.4,379.5 2447.4,268.5 				"/>
				<g id="Group-44" transform="translate(0.000000, 0.494000)">
					<path id="Fill-3_4_" class="st24" d="M2451.4,256c0,0-8,0-18,5s-62,74-32,117c0,0,5,3,11,4s17,19,36,29c0,0-4-13,11-52
						s101-246,142-248c0,0-16-13-65,43C2490.1,206.9,2451.4,256,2451.4,256"/>
					<path id="Fill-5_3_" class="st23" d="M2448.4,411c0,0,17,29,44,24s34.8-29.7,43.9-50.4c9.1-20.6,101-247.6,101-247.6
						s-10.1-32.7-37.8-26.3c-32.1,7.3-62.1,75.3-62.1,75.3l-87,180C2450.4,366,2441.4,392,2448.4,411"/>
					<g id="Group-9_1_" transform="translate(1757.000000, 530.000000)">
						<g id="Clip-8">
						</g>
						<path id="Fill-7_3_" class="st24" d="M715.4-129l111-238c0,0,23-41,46-33s5,45-3,74s-88,199-109,215
							C745.8-99.9,716.4-118,715.4-129"/>
					</g>
					<path id="Fill-10_2_" class="st25" d="M2412.4,382c0,0-11-29,2-64s37-62,37-62s-25.3-7.9-46.6,43c-21.4,51-17.4,78,7.6,85"/>
					<path id="Stroke-12" class="st26" d="M2420.6,353.7c0,0-3.2-28.9,11.8-37.3s38-12.4,41-24.4s1-30,1-30"/>
					<path id="Fill-14_3_" class="st23" d="M1181.6,374.7c0,0,11,43.9,16,51.8c5.1,7.9,99,50.2,129,47.3c30-2.9,80.4-22,87-36.3
						c6.6-14.4-2.3-58.7-11.8-66.9C1392.3,362.4,1181.6,374.7,1181.6,374.7"/>
					<g id="Group-18" transform="translate(0.000000, 332.000000)">
						<g id="Clip-17">
						</g>
						<path id="Fill-16_3_" class="st0" d="M731.3-338.5c0,0-73.9,277.5,94.1,320.5s355.7,4.1,562-63c169-55,162-118,377-56
							c153.8,44.4,550,155,550,155l41-120c0,0-591-305-826-298c-88,2.6-365.2,59-365.2,59L731.3-338.5z"/>
					</g>
					<g id="Group-21" transform="translate(37.000000, 0.000000)">
						<g id="Clip-20">
						</g>
						<path id="Fill-19_2_" class="st0" d="M716.1,27.7c0,0,184.3-381.7,254.3-415.7s97,7,103,52s136,473,136,473l-155,41
							L716.1,27.7z"/>
					</g>
					<polygon id="Stroke-22" points="997.2,-34.9 1092.7,165 1089.1,166.7 993.6,-33.2 					"/>
					<path id="Fill-24" class="st27" d="M1224,137.4l11.7,38.4c-46.6,0-83.5,21.2-93.5,26.2l-10.5-37.6L1224,137.4z"/>
					<path id="Fill-26" class="st23" d="M1261.4,248.3l-101.8,25.3l-21.1-76.6c0,0,0.3-0.1,2-1c10.1-5,50.1-23.7,96.7-23.7"/>
					<path id="Fill-28" class="st28" d="M1227.8,400.3c0,0,71.4,29.4,119.7,10.8c48.3-18.6,59.5-31,59.2-32.2s-80.2-70.2-96-77
						c-15.7-6.8-56.3-36.2-72.4-10.7s-40.2,45.1-37.1,63.7C1204.3,373.5,1227.8,400.3,1227.8,400.3"/>
					<path id="Fill-30_1_" class="st29" d="M1162,287.7c0,0,3.9,66,21.8,96.8l46.7,17.8c0,0-13.5-35.5-2.4-49.6s17.4-29.7,17.5-38.7
						c0.2-9,40.5-19.4,40.5-19.4s6.7,15.2,18.7,15.1s73.9,44.8,73.9,44.8s-15.1-16-31-33s-71.5-71-71.5-71L1162,287.7z"/>
					<path id="Fill-32_1_" class="st30" d="M1156.6,260.9c0,0-9.9,10.4-3.6,20.3s27.6,4,47.8-1.6c20.3-5.6,68.8-17.6,72.4-24.5
						c3.6-7-2.9-21.9-15.9-25.1c0,0,3.8,12.5-1.6,15.7c-5.4,3.3-90.2,27.5-93.7,25.2C1158.4,268.7,1156.6,260.9,1156.6,260.9"/>
					<path id="Fill-34_1_" class="st4" d="M1229.1,314.3c0,0,26.4-28.5,55.8-20.8c0,0,9.7,1.9,6.2-4.5s-8.6-6.3-8.6-6.3
						s0.6-6.3-4.7-7.1c0,0,1.6-6.5-5.7-6.9c0,0-2.3-14.9-18-7.2c-15.7,7.6-46.2,13.5-42.2,21.8c3.9,8.3,6.2,4.8,6.2,4.8
						s-1.8,5.5,2.4,10.7c4.2,5.2,3.6,2.3,3.6,2.3S1219.3,311.4,1229.1,314.3"/>
					<path id="Stroke-36" class="st31" d="M1214.4,289.9c0,0,5.9-5.4,15.7-7.6"/>
					<path id="Stroke-38" class="st31" d="M1275.9,266.8c0,0-11,1.4-17.3,4.9"/>
					<path id="Stroke-40" class="st31" d="M1287.2,282.5c0,0-15.1-0.5-21.7,2"/>
					<path id="Stroke-42" class="st31" d="M1219.7,304.1c0,0,9.4-8.3,22.8-12.3"/>
				</g>
			</g>
			<g id="SCALABLE_7_">
				<polygon id="Rectangle_8_" class="st5" points="715.1,474.9 3045.1,474.9 3045.1,474.9 				"/>
			</g>
		</g>
		<g id="Expression_x2F_Meditating" transform="translate(1633.000000, 1204.000000)" class="st17">
			<g id="Group-124" transform="translate(25.000000, 31.000000)">
				<path id="Stroke-110" d="M-610.5-359.3c1.1-1.1,2.9-1.2,4.1-0.2l0.5,0.5c0.4,0.3,0.8,0.7,1.3,1.1c1.4,1.1,2.9,2.3,4.6,3.3
					c4.6,2.9,9.1,4.6,13.4,4.7c4.3,0.1,8.3-1.3,11.9-3.7c1.2-0.8,2.3-1.7,3.3-2.6l0.3-0.3c0.2-0.2,0.4-0.4,0.6-0.6l0.2-0.2
					c1.1-1.3,2.9-1.5,4.2-0.4s1.5,2.9,0.4,4.2l-0.2,0.2c-0.3,0.3-0.7,0.8-1.3,1.4c-1.2,1.1-2.5,2.2-4,3.2c-4.5,3.1-9.7,4.9-15.3,4.8
					s-11.1-2.2-16.5-5.7c-1.9-1.2-3.6-2.5-5.2-3.8l-0.5-0.4c-0.7-0.6-1.2-1.1-1.6-1.4C-611.6-356.2-611.6-358.1-610.5-359.3z"/>
				<path id="Stroke-112" d="M-676.4-283.2c0.8-1.4,2.6-1.8,4-1.1l0.7,0.4l0.5,0.3c0.4,0.2,0.8,0.4,1.2,0.6c1.9,1,4.1,1.9,6.5,2.8
					c9,3.3,18.6,4.9,28.4,3.7c1.6-0.2,3.1,1,3.3,2.6s-1,3.1-2.6,3.3c-10.8,1.3-21.4-0.4-31.2-4.1c-2.6-1-5-2-7.1-3.1l-0.8-0.4
					c-0.9-0.5-1.5-0.8-1.9-1.1C-676.8-279.9-677.3-281.8-676.4-283.2z"/>
				<path id="Stroke-114" d="M-616.2-379.6l3.8,1.2l-0.4,1.2c-0.3,1-0.6,2.1-1,3.3c-1,3.5-2.1,7.3-3,11.2c-1.1,4.3-2,8.5-2.7,12.5
					l-0.2,1.2c-1.7,10.1-2,17.8-0.4,22l0.1,0.2c8.9,22-3.2,33.1-28.5,25.3l-0.8-0.2l1.2-3.8c22.8,7.3,31.9-0.9,24.3-19.8
					c-2.1-5.2-1.8-14,0.3-25.6c0.7-4.1,1.7-8.3,2.7-12.8c0.9-3.5,1.8-7,2.7-10.2l0.3-1.2c0.2-0.7,0.4-1.4,0.6-2l0.5-1.6
					L-616.2-379.6z"/>
				<path id="Stroke-116" d="M-690.5-400.6c3-0.4,5.9-0.5,8.5-0.4c3.6,0.3,8.5,1.2,14.3,2.8c1.8,0.5,3.6,1,5.5,1.5
					c3.2,0.9,6.4,1.9,9.5,2.9l2,0.7l2,0.7c2.9,1,4.4,4.1,3.4,7c-1,2.8-4,4.3-6.8,3.5l-0.3-0.1l-0.9-0.3c-0.8-0.3-1.8-0.6-2.8-0.9
					c-2.9-1-6-1.9-9.1-2.8c-1.8-0.5-3.6-1-5.3-1.5l-1.1-0.3c-4.7-1.2-8.6-2-11.2-2.2c-1.8-0.1-3.8,0-6.2,0.3c-2.8,0.4-5.9,1.1-9,1.9
					c-1.6,0.4-3.1,0.9-4.5,1.4l-0.7,0.2c-0.4,0.2-0.8,0.3-1.2,0.4l-0.7,0.3c-2.8,1.1-6-0.3-7.1-3.1s0.3-6,3.1-7.1l0.6-0.2
					c0.5-0.2,1.1-0.4,1.8-0.6c1.8-0.6,3.7-1.2,5.8-1.8C-697.5-399.3-693.9-400.1-690.5-400.6z"/>
				<path id="Stroke-118" d="M-593.4-384.5h1.3c5.4-0.1,9.9,0,13.2,0.6c1.8,0.3,3.7,0.8,5.7,1.5c2.9,1,6,2.4,9.1,4.2
					c2,1.1,3.9,2.2,5.7,3.4l0.8,0.5c1.2,0.8,2.1,1.4,2.7,1.8c2.4,1.8,2.9,5.1,1.1,7.5c-1.7,2.3-4.9,2.9-7.3,1.3l-0.7-0.5l-0.6-0.4
					c-0.3-0.2-0.7-0.5-1-0.7c-1.8-1.2-3.7-2.4-5.7-3.4c-2.6-1.4-5.2-2.6-7.5-3.4c-1.4-0.5-2.8-0.9-3.9-1.1
					c-2.7-0.5-7.1-0.6-12.5-0.4c-3.3,0.1-6.8,0.3-10.4,0.6l-1.6,0.1c-1,0.1-2,0.2-2.9,0.3l-2.7,0.3c-2.9,0.3-5.6-1.8-5.9-4.8
					c-0.3-2.9,1.7-5.5,4.5-5.9l0.8-0.1l1.2-0.1h0.3c1.7-0.2,3.5-0.3,5.4-0.5C-600.5-384.2-596.8-384.4-593.4-384.5z"/>
				<path id="Stroke-120" d="M-697.4-369.2c1.1-1.1,2.9-1.2,4.1-0.2l0.5,0.5l0.5,0.4c0.2,0.2,0.5,0.4,0.8,0.7
					c1.4,1.1,2.9,2.3,4.6,3.3c4.6,2.9,9.1,4.6,13.4,4.7c4.3,0.1,8.3-1.3,11.9-3.7c1.2-0.8,2.3-1.7,3.3-2.6l0.4-0.4
					c0.2-0.2,0.4-0.4,0.5-0.5l0.1-0.1c1.1-1.3,2.9-1.5,4.2-0.4s1.5,2.9,0.4,4.2l-0.2,0.2c-0.3,0.3-0.7,0.8-1.3,1.4
					c-1.2,1.1-2.5,2.2-4,3.2c-4.5,3.1-9.7,4.9-15.3,4.8s-11.1-2.2-16.5-5.7c-1.9-1.2-3.6-2.5-5.2-3.8l-0.5-0.4
					c-0.7-0.6-1.2-1.1-1.6-1.4C-698.5-366.1-698.5-368-697.4-369.2z"/>
				<path id="Stroke-122" class="st32" d="M-715-226.6l2-3.5l0.7,0.4l0.7,0.3c1,0.5,2.1,1.1,3.4,1.7l0.5,0.3c4.2,2.1,8.9,4.1,13.9,6
					c11.4,4.4,22.8,7.4,33.3,8.4c4.8,0.4,9.3,0.5,13.5,0l0.8-0.1l0.5,4c-4.8,0.6-9.9,0.6-15.2,0.1c-10.9-1-22.6-4.1-34.4-8.7
					c-5.1-2-9.9-4.1-14.2-6.2l-1.6-0.8c-0.7-0.3-1.3-0.7-2-1l-1.1-0.6L-715-226.6z"/>
			</g>
			<g id="SCALABLE_8_">
				<rect id="Rectangle_9_" x="-715.1" y="-401.1" class="st5" width="202" height="224"/>
			</g>
		</g>
		<g id="Hairstyle_x2F_Fancy-Bun" transform="translate(1142.000000, 877.000000)" class="st17">
			<g id="Group-9_2_" transform="translate(401.000000, 115.000000)">
				<path id="Fill-1_5_" class="st33" d="M-655.9-153.4c0,0,9-35,80.5-68.5c58.9-27.6,126,15,133,26c5.2,8.1,10-95-99-119
					c-92.4-20.4-167.5,79.5-136.5,168.5C-677.9-146.4-673.9-156.4-655.9-153.4"/>
				<g id="Group-5" transform="translate(0.000000, 0.027000)">
					<g id="Clip-4">
					</g>
					<path id="Fill-3_5_" class="st33" d="M-559.5-375.3c22.6,31.3,8.4,80.1-31.6,108.9s-90.7,26.8-113.3-4.5s-8.4-80.1,31.6-108.9
						C-632.8-408.6-582.1-406.6-559.5-375.3"/>
				</g>
				<g id="Group-8_1_" transform="translate(54.000000, 172.027000)">
					<g id="Clip-7">
					</g>
					<path id="Fill-6_3_" class="st33" d="M-696.4-381.9c0,0-27.7,65-5.7,106.5s-29,120.4-6.7,158.3c0,0-1.4-31.3,18.7-71.1
						c20.1-39.9,29.2-56.4,16.7-87.2c-12.6-30.8,24.7-112.5,46-125.6L-696.4-381.9z"/>
				</g>
			</g>
			<g id="SCALABLE_9_">
				<rect id="Rectangle_10_" x="-715.1" y="-401.1" class="st5" width="826" height="747"/>
			</g>
		</g>
		<g id="Accessories_x2F_Dark-Shades-and-Earring" transform="translate(1586.000000, 1237.000000)" class="st17">
			<g id="Group-18_1_" transform="translate(19.000000, -3.000000)">
				<path id="Fill-1_6_" class="st15" d="M-595.4-363.9c0,18.6-15.1,33.7-33.7,33.7s-33.7-15.1-33.7-33.7s15.1-33.7,33.7-33.7
					S-595.4-382.5-595.4-363.9"/>
				<path id="Fill-3_6_" class="st15" d="M-629.1-394.1c-16.7,0-30.2,13.5-30.2,30.2s13.5,30.2,30.2,30.2s30.2-13.5,30.2-30.2
					C-598.9-380.5-612.5-394.1-629.1-394.1 M-629.1-326.7c-20.5,0-37.2-16.7-37.2-37.2s16.7-37.2,37.2-37.2s37.2,16.7,37.2,37.2
					C-591.9-343.4-608.6-326.7-629.1-326.7"/>
				<path id="Fill-5_4_" class="st15" d="M-501.5-354.8c0,18.6-15.1,33.7-33.7,33.7c-18.6,0-33.7-15.1-33.7-33.7
					s15.1-33.7,33.7-33.7S-501.5-373.4-501.5-354.8"/>
				<g id="Group-9_3_" transform="translate(142.000000, 8.500000)">
					<g id="Clip-8_1_">
					</g>
					<path id="Fill-7_4_" class="st15" d="M-677.2-393.5c-16.6,0-30.2,13.5-30.2,30.2s13.5,30.2,30.2,30.2s30.2-13.5,30.2-30.2
						C-647-379.9-660.6-393.5-677.2-393.5 M-677.2-326.1c-20.5,0-37.2-16.7-37.2-37.2s16.7-37.2,37.2-37.2s37.2,16.7,37.2,37.2
						C-640-342.8-656.7-326.1-677.2-326.1"/>
				</g>
				<line id="Fill-10_3_" class="st34" x1="-713.8" y1="-389.6" x2="-663.8" y2="-369.6"/>
				<polygon id="Fill-12_3_" class="st15" points="-665.1,-366.3 -715.1,-386.3 -712.5,-392.8 -662.5,-372.8 				"/>
				<line id="Fill-14_4_" class="st34" x1="-596.1" y1="-361.5" x2="-569.8" y2="-358.6"/>
				<polygon id="Fill-16_4_" class="st15" points="-570.2,-355.1 -596.4,-358 -595.7,-365 -569.5,-362.1 				"/>
			</g>
			<g id="Group-5_1_" transform="translate(1.000000, 55.000000)">
				<path id="Fill-1_7_" class="st4" d="M-693.6-390.1c0,5.8-4.7,10.5-10.5,10.5s-10.5-4.7-10.5-10.5s4.7-10.5,10.5-10.5
					S-693.6-395.9-693.6-390.1"/>
			</g>
			<g id="SCALABLE_10_">
				<rect id="Rectangle_11_" x="-715.1" y="-401.1" class="st5" width="234" height="78"/>
			</g>
		</g>
		<g id="Facial-Hair_x2F_None" transform="translate(1596.000000, 1238.000000)" class="st17">
			<g id="SCALABLE_11_">
				<rect id="Rectangle_12_" x="-715.1" y="-401.1" class="st5" width="212" height="211"/>
			</g>
		</g>
		<g id="HAS-SKIN" transform="translate(25.000000, 0.000000)" class="st17">
			<rect id="Rectangle_13_" x="-715.1" y="-401.1" class="st5" width="100" height="100"/>
		</g>
		<g id="SCALABLE_12_" class="st17">
			<rect id="Rectangle_14_" x="-715.1" y="-401.1" class="st5" width="2330" height="2500"/>
		</g>
	</g>
	<g id="Big-Lamp" transform="translate(749.000000, 996.000000)">
		<g id="Clip-2">
		</g>
		<path id="Fill-1_8_" class="st9" d="M-291.8-132.7l61.7-61l-79.8-80.7l-297,296c0,0-31.4,30.3-42.3,60.7
			c-10.9,30.4-10.9,63.1-10.9,63.1l-0.8,1821.2l443.9,0.2c17.5,0,31.6,14.2,31.6,31.6v0.7c0,17.5-14.2,31.6-31.6,31.6h-466.5
			c-17.5,0-31.6-14.2-31.6-31.6v-0.7c0-14.5,11-26.9,24.3-30.6L-691,145.3c0,0,0.9-44.7,15.3-80.3c12.3-30.5,37.1-56.2,49.4-67.8
			c0.2-0.2,0.4-0.4,0.6-0.5l294.2-293.2l-37.1-37.5c-5.9-6-5.9-15.7,0.1-21.6l41.6-41.2c6-5.9,15.7-5.9,21.6,0.1l128.7,130.1
			c4.5,4.6,5.6,11.3,3.1,16.8l68.1-67.3L93-116.3L-93.2,68L-291.8-132.7z"/>
	</g>
</g>
<g id="Upper-Body_x2F_With-Laptop">
	<path id="Neck_1_" class="st18" d="M3965.4,1208.6c0,0-3.7,81.2-51,109.8c-43,26,48,176.8,145.9,167.8
		c53.6-4.9,66.1-151.5,66.1-151.5s-43.3-8.4-27.3-74.3L3965.4,1208.6z"/>
	<path id="Head_1_" class="st18" d="M4043.8,1291.2c-63.5-7.7-109.3-49.4-115.7-118.6c-18.4,2.9-22.8-45.1-17.7-60.6
		c5.1-15.5,21.9-6.4,21.9-6.4c0.9-2.4,1.7-5,2.4-7.7c27.7-113.7,105.4-109.2,105.4-109.2c142.7,7.4,109.2,153.1,101.1,191.7
		C4133.1,1219.1,4105.2,1298.6,4043.8,1291.2z"/>
	<g id="Group-25" transform="translate(266.000000, 320.000000)">
		<g id="Group-19" transform="translate(0.000000, 0.612000)">
			<path id="Path_1_" class="st18" d="M3329.7,1290.3c-55.4,97.9-67.4,171.1-36.2,219.5c46.9,72.7,113.3-23.4,140.7-130.7
				c18.2-71.5,46.2-128.6,83.8-171.4L3329.7,1290.3z"/>
			<g id="Group-3_1_" transform="translate(695.000000, 361.000000)">
				<g id="Clip-2_1_">
				</g>
			</g>
			<path id="Fill-4_3_" class="st10" d="M3521.3,1029.8c82.9-25.6,108.4-27.1,108.4-27.1l87.5,18.9c0,0,48,63,52.1,119.2
				c0,0,1.4-74,32.9-124.7c0,0,138.7-1.3,191,53.3c82.6,86.2,81,237.6,81,237.6l-136.3,14l55.3-76.9c0,0,3.5,313.4-4.7,394.3
				c-104,114.8-478,25.9-478,25.9s8.1-259.3,9.5-330.3c1.4-70.9-24.9-61.4-61,26.6c-29.6,71.9-123.6-77.2-123.6-77.2
				S3393.1,1069.4,3521.3,1029.8z"/>
			<path id="Fill-6_4_" class="st14" d="M3944.5,1420.4c0,0,67.3-24.1,135.7-9.9c0,0-0.9-22.3-0.2-51.8c0.6-24.2,13.8-61.7-34-57.7
				c-55.7,4.7-79.6,5.2-103.8,16.2C3942.2,1317.1,3936.5,1397.3,3944.5,1420.4"/>
			<path id="Fill-10_4_" class="st11" d="M3304.4,1330.4l29.3-92.3c0,0,108.6-22.7,151.7,71.2l-32.3,83.6
				C3453.2,1392.9,3392.9,1303.9,3304.4,1330.4"/>
			<g id="Group-14_1_" transform="translate(338.000000, 0.000000)">
				<g id="Clip-13">
				</g>
				<defs>
					<filter id="Adobe_OpacityMaskFilter" filterUnits="userSpaceOnUse" x="3241" y="989" width="140.8" height="91.7">
						<feColorMatrix  type="matrix" values="1 0 0 0 0  0 1 0 0 0  0 0 1 0 0  0 0 0 1 0"/>
					</filter>
				</defs>
				<mask maskUnits="userSpaceOnUse" x="3241" y="989" width="140.8" height="91.7" id="mask-4_2_">
					<g class="st35">
						<polygon id="path-3_2_" class="st4" points="3241,989 3381.8,989 3381.8,1080.7 3241,1080.7 						"/>
					</g>
				</mask>
				<path id="Fill-12_5_" class="st36" d="M3293.2,989.1c0,0-55.4,18.8-52,23.9c3.4,5.1,101.8,70.5,109.1,67.6
					c7.4-2.9,35-55.3,31.1-60.6C3377.5,1014.8,3297.9,987.2,3293.2,989.1"/>
			</g>
			<path id="Fill-15_3_" class="st11" d="M3891.1,1011.9c0,0,47.7,33.9,43,37.8c-4.7,3.9-117.7,38.4-124,33.5
				c-6.2-4.9-17.7-63-12.4-66.9C3803,1012.3,3887.1,1008.7,3891.1,1011.9"/>
			<path id="Fill-8_2_" class="st18" d="M3370.3,1386.6c27.3,40,11.1,40.7,23,62.7c11.9,22,23.1,67.9,36.7,66.7
				c13.6-1.2,14.4-8.7,9-22.9c-5.3-14.2-20.9-59.6-15.1-61.8c5.8-2.2,24.7,87.6,46.3,86.2c21.6-1.4,3.5-47.5-6.3-68.1
				c-9.8-20.6-13.1-35.8-6.9-34.5c6.2,1.3,30,101.8,47.6,98.8c17.6-3,8.7-38.3-1.1-59.2c-9.7-20.8-24.3-53.7-24.3-53.7
				s24.7,32,35.9,70.3c11.2,38.2,18.1,40.2,24.4,36.5c6.3-3.7-2.1-48.7-2.1-48.7s21.1-34.5-5.4-65.3c-26.5-30.8-41.4-63.2-77.9-80.6
				c-36.6-17.4-59.3-2.9-59.3-2.9S3343,1346.6,3370.3,1386.6z"/>
			<path id="Fill-17_3_" class="st11" d="M3903.5,1198.5h-90.8c-3.7,0-6.7-3-6.7-6.7v-7.9c0-3.7,3-6.7,6.7-6.7h90.8
				c3.7,0,6.7,3,6.7,6.7v7.9C3910.2,1195.5,3907.2,1198.5,3903.5,1198.5"/>
		</g>
		<g id="Group-24_1_" transform="translate(397.000000, 175.000000)">
			<path id="Fill-20_1_" class="st6" d="M3425.8,1361.1l-182.7-50.6c0,0-11.4-12,22.1-15.1c33.4-3.2,382.9-12.5,382.9-12.5
				L3425.8,1361.1z"/>
			<path id="Fill-22_1_" class="st37" d="M3943.8,1360.5h-512.5c-9.5,0-17.2-7.7-17.2-17.2l46.5-337.5c0-9.5,7.7-17.2,17.2-17.2
				h512.5c9.5,0,17.2,7.7,17.2,17.2l-46.5,337.5C3961,1352.8,3953.3,1360.5,3943.8,1360.5"/>
		</g>
		
			<g id="Group-2" transform="translate(893.239277, 513.555823) scale(-1, 1) rotate(-72.000000) translate(-893.239277, -513.555823) translate(800.239277, 441.555823)">
			<path id="Fill-12_4_" class="st18" d="M-1906.8-2775.7c0,0-4.7,4.6-9.3,10.2c-4.6,5.7-0.5,6.7-10.8,17.5
				c-10.3,10.8-28.8,38.1,3.6,79.8c32.5,41.7,43.3,38.1,56.7,30.9c13.4-7.2,14.9-12.4,40.2-14.9c25.2-2.6,49.5-27.3,48.9-33.5
				l-0.5-6.2c0,0,23.2-8.8,21.6-18.5c-1.5-9.8-8.2-8.8-8.2-8.8s4.6-4.6,1-12.9c-3.6-8.2-20.6-6.7-40.2-4.1
				c-19.6,2.6-70.1,12.9-73.1,10.8c-3.1-2.1-2.1-5.2,9.8-6.7c11.8-1.5,59.8-2.1,59.8-15.5c0-13.4-14.4-16-42.2-15.5
				c-27.8,0.5-33-1-39.7,1.5l-12.4,1.4C-1905.1-2770.4-1906.8-2775.7-1906.8-2775.7z"/>
			<path id="Fill-14_5_" class="st21" d="M-1764.3-2719.1c0,0,1.5-1.1-9.5,3.1c-4,1.5-9.7,3.1-17.6,4.6c-29.9,5.7-76.8,16-91.2,18
				c-14.4,2.1-2.6,5.2,30.4-1.5c33-6.7,72.2-15.7,74-16.3C-1775.3-2712.1-1766.3-2715.1-1764.3-2719.1"/>
			<path id="Fill-16_5_" class="st21" d="M-1825.3-2677.1c-12.7,3.2-34,8-36.2,8.5c-4,1-11.8,2.6-11.8,2.6s0.1,2.9,24.1-2.1
				c6-1.2,17-3,24-5c6.4-1.8,29.7-7.8,32.8-10.4c3.1-2.6,3.6-5.2,3.6-5.2S-1813.3-2680.1-1825.3-2677.1z"/>
		</g>
	</g>
</g>
<g id="Lower-Body_x2F_Sitting-on-Floor_x2F_Legs-Crossed-2_1_">
	<g id="Group-46_1_" transform="translate(69.000000, 357.000000)">
		<path id="Fill-1_10_" class="st18" d="M3931.7,1835.4l31.9,18c0,0,44.3-44.8,39.1-37.6c-5.2,7.2-47.9-11.3-47.9-11.3
			L3931.7,1835.4z"/>
		<path id="Stroke-3_1_" class="st38" d="M3931.7,1835.4l31.9,18c0,0,44.3-44.8,39.1-37.6c-5.2,7.2-47.9-11.3-47.9-11.3
			L3931.7,1835.4z"/>
		<path id="Fill-5_6_" class="st39" d="M4297.4,1827.2c-40.7,3.1-218.4,89.1-218.4,89.1l4.6,22.7c0,0,176.7,39.1,226.6-18
			C4360.2,1863.7,4297.4,1827.2,4297.4,1827.2"/>
		<path id="Fill-7_6_" class="st40" d="M4271.5,1833.2c56,29.2,24.1,99.9,24.1,99.9c25-11.1,42-44.1,34.3-72.4
			c-7.7-28.3-32.5-33.5-32.5-33.5L4271.5,1833.2z"/>
		<path id="Fill-9_4_" class="st41" d="M4277.2,1941.1c-58.8,30.5-196.3-1.7-196.3-1.7l-6.5-23.6l37-14.9
			c11.2,2.1,122.7-3.7,133-4.7C4254.6,1895.2,4277.2,1941.1,4277.2,1941.1"/>
		<path id="Fill-11_4_" class="st42" d="M4246.9,1854.5c0,0-0.5-5.2-3.1-9.3c-2.6-4.1-89.6,29.4-95.3,38.1
			c-5.7,8.8-16,26.8-6.7,28.8c9.3,2.1,12.4-14.4,22.7-28.3c10.3-13.9-7.7,23.7,2.1,29.4c9.8,5.7,21.1-40.2,26.8-39.1
			c5.7,1-9.3,35.5,1.5,36.1c10.8,0.5,14.9-33.5,21.6-51.5c6.7-18-9.3,46.9-1.5,55.6c7.7,8.8,9.3-20.6,11.3-43.8
			c2.1-23.2,5.2,43.8,17,43.8C4255.2,1914.2,4246.9,1854.5,4246.9,1854.5"/>
		<g id="Group-15_1_" transform="translate(0.000000, 0.784000)">
			<path id="Fill-13_3_" class="st13" d="M4114,1912.4c-33,44.8-95.8-106.1-107.1-102c-11.3,4.1-42.2,4.6-42.2,4.6l-54.1-39.1
				c10.3,62.3-28.3,105.1-28.3,105.1l-89.6,5.7c-89.6,5.7-264.2-53.1-320.9-80.4c-56.7-27.3-95.3-107.7-62.3-189.6
				c33-81.9,140.6-51.5,208.1-31.4c67.5,20.1,197.3,27.3,294,27.5c96.7,0.2,299.4-38.4,361.2-65.7s190.1-91.2,244.7-7.2
				c54.6,84-1.5,158.7-98.4,235.4C4322.1,1852.1,4114,1912.4,4114,1912.4"/>
		</g>
		<path id="Fill-16_7_" class="st18" d="M4004.8,1812.8c0,0-65.9,37.6-74.2,48.9c-8.2,11.3-80.9,27.8-80.9,27.8s-12.9,74.2,8.8,89.1
			c21.6,14.9,66.4,3.1,88.1-10.8c21.6-13.9,112.3-47.4,112.3-47.4L4004.8,1812.8z"/>
		<path id="Fill-18_3_" class="st39" d="M3857.5,1895.4c0,0,23.1,70.4,22.6,83.8c-0.5,13.4-19.6,24.7-38.6,30.9
			c-19.1,6.2-104.1-6.2-147.8-2.6c-43.8,3.6-92.2,29.4-127.7-24.7c-35.5-54.1,46.4-130.8,85-120c38.6,10.8,173.1,25.8,187.5,23.2
			C3852.9,1883.3,3857.5,1895.4,3857.5,1895.4"/>
		<path id="Fill-20_3_" class="st40" d="M3661,1869.8c0,0,16.8,2.7,0-6.2c-16.8-8.9-65.1-4-95.9,56.5
			c-30.8,60.4,23.2,85.9,23.2,85.9s-4.8-30.9,5.5-69.6C3604.1,1897.7,3661,1869.8,3661,1869.8"/>
		<path id="Fill-22_3_" class="st43" d="M3667.3,1868.5c0,0,12.5,48.3,8.4,84.4c-4.1,36.1-55.2,63.4-55.2,63.4
			c32.8-6.7,56.8-39.7,61.4-43.3c4.6-3.6,11.8,0.5,11.8,0.5s176.7,30.4,186,14.4c9.3-16-16.5-77.9-16.5-77.9s-120.1,26.3-145.8,26.9
			c-25.8,0.5-23.7-4.6-23.7-4.6C3690.6,1905.5,3667.3,1868.5,3667.3,1868.5"/>
		<path id="Fill-24_2_" class="st4" d="M3836.9,1906c-0.5-6.2-4.6-4.1-11.3,2.6c-6.7,6.7,5.7,84.5,17.2,86.6c11.5,2.1,6-15-0.7-34.5
			C3835.4,1941,3836.9,1906,3836.9,1906"/>
		<path id="Fill-26_2_" class="st4" d="M3817.8,1910.1c-0.5-6.2-4.6-4.1-11.3,2.6c-6.7,6.7,5.7,84.5,17.2,86.6
			c11.5,2.1,6-15-0.7-34.5C3816.3,1945.1,3817.8,1910.1,3817.8,1910.1"/>
		<path id="Fill-28_2_" class="st4" d="M3750.4,1911.3c-0.5-5.7-4.6-3.8-11.3,2.4c-6.7,6.1,5.7,77.3,17.2,79.2
			c11.5,1.9,6-13.7-0.7-31.6C3748.8,1943.4,3750.4,1911.3,3750.4,1911.3"/>
		<path id="Fill-30_3_" class="st4" d="M3724.6,1915.2c-0.5-5.3-4.6-3.5-11.3,2.2c-6.7,5.7,5.7,72.1,17.2,73.9
			c11.5,1.8,6-12.8-0.7-29.5C3723.1,1945.1,3724.6,1915.2,3724.6,1915.2"/>
		<path id="Fill-32_3_" class="st4" d="M3706.1,1913.1c0.2-5.3-4.1-4.1-11.5,0.6c-7.4,4.7-4.6,72.2,6.5,75.6s7.7-11.8,3.5-29.3
			C3700.3,1942.5,3706.1,1913.1,3706.1,1913.1"/>
		<path id="Fill-34_3_" class="st4" d="M3793.9,1912.4c-1.1-6.1-5-3.6-11,3.7c-6,7.3,14.3,83.5,26,84.4c11.7,0.9,4.4-15.5-4.2-34.3
			C3795.9,1947.4,3793.9,1912.4,3793.9,1912.4"/>
		<path id="Fill-36_2_" class="st4" d="M3783.8,1911.7c0.5-6.2-3.9-4.8-11.6,0.8c-7.7,5.6-7.5,84.3,3.6,88.2
			c11.1,3.9,8.2-13.9,4.6-34.2C3776.8,1946.1,3783.8,1911.7,3783.8,1911.7"/>
		<path id="Fill-38_2_" class="st4" d="M3861,1907.7c31.3,9.9,21.7,74.3,21.7,74.3s-40.7,11-47.4-28.1
			C3828.7,1914.7,3861,1907.7,3861,1907.7"/>
		<polygon id="Stroke-40_2_" points="4319.2,1568.4 4034.4,1793.1 3970.4,1820 3903.5,1778.3 3679.7,1636.7 3681.8,1633.3 
			3905.6,1774.9 3970.8,1815.5 4032.3,1789.6 4316.7,1565.3 		"/>
		<path id="Fill-42_2_" class="st44" d="M3898.7,1753.5c13.9,43.8-4.1,90.1-13.9,115.4c-9.8,25.2,5.7,11.8,43.8-4.1
			c38.1-16,42.2-54.1,29.4-76.2S3898.7,1753.5,3898.7,1753.5"/>
		<path id="Fill-44_2_" class="st44" d="M4033.7,1782.9c-4.1-17-56.1,24.7-56.1,24.7c1,51,48.4,108.2,70.1,133.9
			c21.6,25.8,21.1,26.3,30.4,13.9c9.3-12.4,23.7-17,33-26.8c9.3-9.8-16-13.9-44.3-54.1C4038.3,1834.4,4033.7,1782.9,4033.7,1782.9"
			/>
	</g>
	<g id="SCALABLE_14_">
		<rect id="Rectangle_30_" x="2346.7" y="1498" class="st5" width="2330" height="876"/>
	</g>
</g>
<g id="Hairstyle_x2F_Bob">
	<path id="Fill-1_9_" class="st15" d="M3835.2,1265.1c0,0,10-139.2,42-221.8c40.3-103.8,108.6-146,167.4-126c0,0,83.7-10,110,63.7
		s16.2,308.7,16.2,308.7l-66.2-5c0,0-9.4-25-5-43.7c0,0,37.2-39.3,47.7-98.2c14.1-79.2-31.1-80.2-69.2-97.1
		c-38.1-16.9-60.3-39-60.3-39s-62.4,84.9-51.8,264.7L3835.2,1265.1z"/>
</g>
<g id="Expression_x2F_Happy">
	<g id="Group-124_1_" transform="translate(25.000000, 52.000000)">
		<path id="Stroke-114_1_" d="M4065.3,1037.6l3.8,1.2l-0.4,1.2c-0.3,1-0.6,2.1-1,3.3c-1,3.5-2.1,7.3-3,11.2c-1.1,4.3-2,8.5-2.7,12.5
			l-0.2,1.2c-1.7,10.1-2,17.8-0.4,22l0.1,0.2c8.9,22-3.2,33.1-28.5,25.3l-0.8-0.2l1.2-3.8c22.8,7.3,31.9-0.9,24.3-19.8
			c-2.1-5.2-1.8-14,0.3-25.6c0.7-4.1,1.7-8.3,2.7-12.8c0.9-3.5,1.8-7,2.7-10.2l0.3-1.2c0.2-0.7,0.4-1.4,0.6-2l0.5-1.6L4065.3,1037.6
			z"/>
		<path id="Stroke-122_1_" class="st32" d="M3966.6,1190.6l2-3.5l0.7,0.4l0.7,0.3c1,0.5,2.1,1.1,3.4,1.7l0.5,0.3
			c4.2,2.1,8.9,4.1,13.9,6c11.4,4.4,22.8,7.4,33.3,8.4c4.8,0.4,9.3,0.5,13.5,0l0.8-0.1l0.5,4c-4.8,0.6-9.9,0.6-15.2,0.1
			c-10.9-1-22.6-4.1-34.4-8.7c-5.1-2-9.9-4.1-14.2-6.2l-1.6-0.8c-0.7-0.3-1.3-0.7-2-1l-1.1-0.6L3966.6,1190.6z"/>
	</g>
	<g id="Group-16" transform="translate(27.000000, 30.000000)">
		<path id="Fill-3_7_" class="st15" d="M4034.1,1172.1c-18.2-4.9-29.7-16.9-30.3-17.5c-1.1-1.2-1.1-3.1,0.1-4.2
			c1.2-1.1,3.1-1.1,4.2,0.1c0.2,0.2,13.8,14.3,33.9,17.1c1.6,0.2,2.8,1.8,2.5,3.4c-0.2,1.6-1.8,2.8-3.4,2.5
			C4038.8,1173.2,4036.4,1172.7,4034.1,1172.1"/>
		<path id="Fill-5_5_" class="st15" d="M4045.2,1140.3c-4,0-9.1-0.8-15.4-2.8l1.2-3.8c11.7,3.8,20.4,3.4,24.4-0.9
			c3.4-3.7,3.4-10.4-0.1-18.9c-2.3-5.8-1.8-16.7,1.7-32.6c2.5-11.6,5.8-21.7,5.8-21.8l3.8,1.2c-3.5,10.9-11.7,41.5-7.6,51.6
			c5.2,12.9,2.5,19.7-0.7,23.1C4056.1,1138,4052.1,1140.3,4045.2,1140.3"/>
		<g id="Group-9_4_" transform="translate(0.000000, 0.956000)">
			<path id="Fill-7_5_" class="st15" d="M4028.5,1056.5c-0.6,0-1.2-0.1-1.8-0.3c-5.8-2-22.7-7.4-30.5-8c-7.4-0.5-18.6,3.1-22.3,4.5
				c-2.8,1.1-6-0.3-7.1-3.1c-1.1-2.8,0.3-6,3.1-7.1c0.6-0.2,15.7-6.1,27.1-5.3c10.9,0.8,32.4,8.3,33.3,8.6c2.9,1,4.4,4.1,3.4,7
				C4032.9,1055.1,4030.8,1056.5,4028.5,1056.5"/>
		</g>
		<path id="Fill-10_5_" class="st15" d="M4121.1,1076.3c-1.1,0-2.2-0.3-3.2-1c-3.1-2.2-12.5-8.3-19.4-9.5
			c-7.3-1.2-24.2,0.2-30.1,0.8c-2.9,0.3-5.6-1.8-5.9-4.8c-0.3-2.9,1.8-5.6,4.8-5.9c0.9-0.1,22.7-2.4,33-0.7
			c10.8,1.8,23.4,11,24,11.4c2.4,1.8,2.9,5.1,1.1,7.5C4124.4,1075.5,4122.7,1076.3,4121.1,1076.3"/>
		<path id="Fill-12_6_" class="st15" d="M4018,1086.2c-0.7,0-1.5-0.3-2-0.8c0,0-5-4.4-12.1-4.2c-7.4,0.3-12.3,3.9-12.3,3.9
			c-1.3,1-3.2,0.7-4.2-0.6c-1-1.3-0.7-3.2,0.6-4.2c0.3-0.2,6.4-4.8,15.8-5.1c9.6-0.3,16.1,5.5,16.4,5.7c1.2,1.1,1.3,3,0.2,4.2
			C4019.7,1085.9,4018.8,1086.2,4018,1086.2"/>
		<path id="Fill-14_6_" class="st15" d="M4102.2,1095.4c-0.7,0-1.5-0.3-2-0.8c0,0-5-4.4-12.1-4.2c-7.4,0.3-12.3,3.9-12.3,3.9
			c-1.3,1-3.2,0.8-4.2-0.6c-1-1.3-0.8-3.2,0.6-4.2c0.3-0.2,6.4-4.8,15.8-5.1c9.6-0.3,16.1,5.5,16.4,5.7c1.2,1.1,1.3,3,0.2,4.2
			C4103.8,1095,4103,1095.4,4102.2,1095.4"/>
	</g>
	<g id="SCALABLE_13_">
		<rect id="Rectangle_15_" x="3966.4" y="1037.1" class="st5" width="202" height="224"/>
	</g>
</g>
</svg>
